{
    "asset" : {
        "generator" : "Khronos glTF Blender I/O v1.2.75",
        "version" : "2.0"
    },
    "scene" : 0,
    "scenes" : [
        {
            "name" : "Scene",
            "nodes" : [
                0,
                1,
                2,
                3,
                4,
                5
            ]
        }
    ],
    "nodes" : [
        {
            "mesh" : 0,
            "name" : "Group61487.001",
            "rotation" : [
                0.7071068286895752,
                0,
                0,
                0.7071067094802856
            ],
            "scale" : [
                0.029987506568431854,
                0.029987506568431854,
                0.029987506568431854
            ],
            "translation" : [
                0,
                -2.3095290660858154,
                0
            ]
        },
        {
            "name" : "Sun.002",
            "rotation" : [
                -0.19005602598190308,
                0.8271938562393188,
                0.19199083745479584,
                -0.4927155077457428
            ],
            "translation" : [
                -13.896764755249023,
                -1.0874783992767334,
                -9.628021240234375
            ]
        },
        {
            "name" : "Sun.001",
            "rotation" : [
                -0.1935548186302185,
                0.49953415989875793,
                -0.18846304714679718,
                0.8230940699577332
            ],
            "translation" : [
                -6.588021278381348,
                1.6441717147827148,
                -15.420402526855469
            ]
        },
        {
            "name" : "Sun",
            "rotation" : [
                0.020704451948404312,
                -0.3119627833366394,
                -0.2693568170070648,
                0.9108772873878479
            ],
            "translation" : [
                7.18863582611084,
                1.6441717147827148,
                -15.420402526855469
            ]
        },
        {
            "mesh" : 1,
            "name" : "Group61487",
            "rotation" : [
                0.7071068286895752,
                0,
                0,
                0.7071067094802856
            ],
            "scale" : [
                0.029987506568431854,
                0.029987506568431854,
                0.029987506568431854
            ],
            "translation" : [
                0,
                -2.3095290660858154,
                0
            ]
        },
        {
            "name" : "Camera",
            "rotation" : [
                -0.587014377117157,
                -0.21798160672187805,
                0.1761213093996048,
                -0.7595257759094238
            ],
            "translation" : [
                6.599717140197754,
                3.428698778152466,
                9.715828895568848
            ]
        }
    ],
    "materials" : [
        {
            "doubleSided" : true,
            "name" : "Material.001",
            "pbrMetallicRoughness" : {}
        }
    ],
    "meshes" : [
        {
            "name" : "Group61487.001",
            "primitives" : [
                {
                    "attributes" : {
                        "POSITION" : 0,
                        "NORMAL" : 1,
                        "TANGENT" : 2,
                        "TEXCOORD_0" : 3
                    },
                    "indices" : 4,
                    "material" : 0
                }
            ]
        },
        {
            "name" : "Group61487",
            "primitives" : [
                {
                    "attributes" : {
                        "POSITION" : 5,
                        "NORMAL" : 6,
                        "TANGENT" : 7,
                        "TEXCOORD_0" : 8
                    },
                    "indices" : 9,
                    "material" : 0
                }
            ]
        }
    ],
    "accessors" : [
        {
            "bufferView" : 0,
            "componentType" : 5126,
            "count" : 656,
            "max" : [
                -60.980079650878906,
                84.57405090332031,
                -96.45452117919922
            ],
            "min" : [
                -68.9450912475586,
                -10.3603515625,
                -149.09336853027344
            ],
            "type" : "VEC3"
        },
        {
            "bufferView" : 1,
            "componentType" : 5126,
            "count" : 656,
            "type" : "VEC3"
        },
        {
            "bufferView" : 2,
            "componentType" : 5126,
            "count" : 656,
            "type" : "VEC4"
        },
        {
            "bufferView" : 3,
            "componentType" : 5126,
            "count" : 656,
            "type" : "VEC2"
        },
        {
            "bufferView" : 4,
            "componentType" : 5123,
            "count" : 2022,
            "type" : "SCALAR"
        },
        {
            "bufferView" : 5,
            "componentType" : 5126,
            "count" : 15187,
            "max" : [
                88.76740264892578,
                18.43526840209961,
                2.5416259765625
            ],
            "min" : [
                -72.00203704833984,
                -29.598613739013672,
                -184.01296997070312
            ],
            "type" : "VEC3"
        },
        {
            "bufferView" : 6,
            "componentType" : 5126,
            "count" : 15187,
            "type" : "VEC3"
        },
        {
            "bufferView" : 7,
            "componentType" : 5126,
            "count" : 15187,
            "type" : "VEC4"
        },
        {
            "bufferView" : 8,
            "componentType" : 5126,
            "count" : 15187,
            "type" : "VEC2"
        },
        {
            "bufferView" : 9,
            "componentType" : 5123,
            "count" : 55629,
            "type" : "SCALAR"
        }
    ],
    "bufferViews" : [
        {
            "buffer" : 0,
            "byteLength" : 7872,
            "byteOffset" : 0
        },
        {
            "buffer" : 0,
            "byteLength" : 7872,
            "byteOffset" : 7872
        },
        {
            "buffer" : 0,
            "byteLength" : 10496,
            "byteOffset" : 15744
        },
        {
            "buffer" : 0,
            "byteLength" : 5248,
            "byteOffset" : 26240
        },
        {
            "buffer" : 0,
            "byteLength" : 4044,
            "byteOffset" : 31488
        },
        {
            "buffer" : 0,
            "byteLength" : 182244,
            "byteOffset" : 35532
        },
        {
            "buffer" : 0,
            "byteLength" : 182244,
            "byteOffset" : 217776
        },
        {
            "buffer" : 0,
            "byteLength" : 242992,
            "byteOffset" : 400020
        },
        {
            "buffer" : 0,
            "byteLength" : 121496,
            "byteOffset" : 643012
        },
        {
            "buffer" : 0,
            "byteLength" : 111258,
            "byteOffset" : 764508
        }
    ],
    "buffers" : [
        {
            "byteLength" : 875768,
            "uri" : "data:application/octet-stream;base64,"
        }
    ]
}
