{
    "asset" : {
        "generator" : "Khronos glTF Blender I/O v1.0.5",
        "version" : "2.0"
    },
    "scene" : 0,
    "scenes" : [
        {
            "name" : "Scene",
            "nodes" : [
                9
            ]
        }
    ],
    "nodes" : [
        {
            "mesh" : 0,
            "name" : "Sphere01",
            "translation" : [
                0,
                2.0000009536743164,
                7.5000104904174805
            ]
        },
        {
            "mesh" : 1,
            "name" : "Sphere02",
            "translation" : [
                0,
                2.0000009536743164,
                -7.5000104904174805
            ]
        },
        {
            "mesh" : 2,
            "name" : "Sphere03",
            "rotation" : [
                0,
                0.3826834559440613,
                0,
                0.9238795638084412
            ],
            "translation" : [
                -5.3032917976379395,
                2.0000009536743164,
                -5.3032917976379395
            ]
        },
        {
            "mesh" : 3,
            "name" : "Sphere04",
            "rotation" : [
                0,
                0.3826834559440613,
                0,
                0.9238795638084412
            ],
            "translation" : [
                5.3032917976379395,
                2.0000009536743164,
                5.3032917976379395
            ]
        },
        {
            "mesh" : 4,
            "name" : "Sphere05",
            "rotation" : [
                0,
                0.7071068286895752,
                0,
                0.7071068286895752
            ],
            "translation" : [
                -7.5000104904174805,
                2.0000009536743164,
                0
            ]
        },
        {
            "mesh" : 5,
            "name" : "Sphere06",
            "rotation" : [
                0,
                0.7071068286895752,
                0,
                0.7071068286895752
            ],
            "translation" : [
                7.5000104904174805,
                2.0000009536743164,
                0
            ]
        },
        {
            "mesh" : 6,
            "name" : "Sphere07",
            "rotation" : [
                0,
                0.9238795638084412,
                0,
                0.38268333673477173
            ],
            "translation" : [
                -5.3032917976379395,
                2.0000009536743164,
                5.3032917976379395
            ]
        },
        {
            "mesh" : 7,
            "name" : "Sphere08",
            "rotation" : [
                0,
                0.9238795638084412,
                0,
                0.38268333673477173
            ],
            "translation" : [
                5.3032917976379395,
                2.0000009536743164,
                -5.3032917976379395
            ]
        },
        {
            "mesh" : 8,
            "name" : "Teapot01"
        },
        {
            "children" : [
                0,
                1,
                2,
                3,
                4,
                5,
                6,
                7,
                8
            ],
            "name" : "Z_UP",
            "scale" : [
                0.1004629135131836,
                0.10046293586492538,
                0.10046293586492538
            ],
            "translation" : [
                0,
                -0.2057836651802063,
                0
            ]
        }
    ],
    "materials" : [
        {
            "emissiveFactor" : [
                0,
                0,
                0
            ],
            "name" : "m0_01___Default",
            "pbrMetallicRoughness" : {
                "baseColorFactor" : [
                    0.5882350206375122,
                    0,
                    0,
                    1
                ],
                "metallicFactor" : 0,
                "roughnessFactor" : 1
            }
        },
        {
            "emissiveFactor" : [
                0,
                0,
                0
            ],
            "name" : "m0_01___Default.001",
            "pbrMetallicRoughness" : {
                "baseColorFactor" : [
                    0.5882350206375122,
                    0,
                    0,
                    1
                ],
                "metallicFactor" : 0,
                "roughnessFactor" : 1
            }
        },
        {
            "emissiveFactor" : [
                0,
                0,
                0
            ],
            "name" : "m1_09___Default.001",
            "pbrMetallicRoughness" : {
                "baseColorFactor" : [
                    1,
                    0.7294120192527771,
                    0,
                    1
                ],
                "metallicFactor" : 0,
                "roughnessFactor" : 1
            }
        },
        {
            "emissiveFactor" : [
                0,
                0,
                0
            ],
            "name" : "m1_09___Default",
            "pbrMetallicRoughness" : {
                "baseColorFactor" : [
                    1,
                    0.7294120192527771,
                    0,
                    1
                ],
                "metallicFactor" : 0,
                "roughnessFactor" : 1
            }
        },
        {
            "emissiveFactor" : [
                0,
                0,
                0
            ],
            "name" : "m2_01___Default3.001",
            "pbrMetallicRoughness" : {
                "baseColorFactor" : [
                    0.3803919851779938,
                    0.8235290050506592,
                    0.4549019932746887,
                    1
                ],
                "metallicFactor" : 0,
                "roughnessFactor" : 1
            }
        },
        {
            "emissiveFactor" : [
                0,
                0,
                0
            ],
            "name" : "m2_01___Default3",
            "pbrMetallicRoughness" : {
                "baseColorFactor" : [
                    0.3803919851779938,
                    0.8235290050506592,
                    0.4549019932746887,
                    1
                ],
                "metallicFactor" : 0,
                "roughnessFactor" : 1
            }
        },
        {
            "emissiveFactor" : [
                0,
                0,
                0
            ],
            "name" : "m3_01___Default2.001",
            "pbrMetallicRoughness" : {
                "baseColorFactor" : [
                    0,
                    0.035294000059366226,
                    0.47450998425483704,
                    1
                ],
                "metallicFactor" : 0,
                "roughnessFactor" : 1
            }
        },
        {
            "emissiveFactor" : [
                0,
                0,
                0
            ],
            "name" : "m3_01___Default2",
            "pbrMetallicRoughness" : {
                "baseColorFactor" : [
                    0,
                    0.035294000059366226,
                    0.47450998425483704,
                    1
                ],
                "metallicFactor" : 0,
                "roughnessFactor" : 1
            }
        },
        {
            "emissiveFactor" : [
                0,
                0,
                0
            ],
            "name" : "m0_01___Default.002",
            "pbrMetallicRoughness" : {
                "baseColorFactor" : [
                    0.5882350206375122,
                    0,
                    0,
                    1
                ],
                "metallicFactor" : 0,
                "roughnessFactor" : 1
            }
        }
    ],
    "meshes" : [
        {
            "name" : "Sphere01",
            "primitives" : [
                {
                    "attributes" : {
                        "POSITION" : 0,
                        "NORMAL" : 1
                    },
                    "indices" : 2,
                    "material" : 0
                }
            ]
        },
        {
            "name" : "Sphere02",
            "primitives" : [
                {
                    "attributes" : {
                        "POSITION" : 3,
                        "NORMAL" : 4
                    },
                    "indices" : 2,
                    "material" : 1
                }
            ]
        },
        {
            "name" : "Sphere03",
            "primitives" : [
                {
                    "attributes" : {
                        "POSITION" : 5,
                        "NORMAL" : 6
                    },
                    "indices" : 2,
                    "material" : 2
                }
            ]
        },
        {
            "name" : "Sphere04",
            "primitives" : [
                {
                    "attributes" : {
                        "POSITION" : 7,
                        "NORMAL" : 8
                    },
                    "indices" : 2,
                    "material" : 3
                }
            ]
        },
        {
            "name" : "Sphere05",
            "primitives" : [
                {
                    "attributes" : {
                        "POSITION" : 9,
                        "NORMAL" : 10
                    },
                    "indices" : 2,
                    "material" : 4
                }
            ]
        },
        {
            "name" : "Sphere06",
            "primitives" : [
                {
                    "attributes" : {
                        "POSITION" : 11,
                        "NORMAL" : 12
                    },
                    "indices" : 2,
                    "material" : 5
                }
            ]
        },
        {
            "name" : "Sphere07",
            "primitives" : [
                {
                    "attributes" : {
                        "POSITION" : 13,
                        "NORMAL" : 14
                    },
                    "indices" : 2,
                    "material" : 6
                }
            ]
        },
        {
            "name" : "Sphere08",
            "primitives" : [
                {
                    "attributes" : {
                        "POSITION" : 15,
                        "NORMAL" : 16
                    },
                    "indices" : 2,
                    "material" : 7
                }
            ]
        },
        {
            "name" : "Teapot01",
            "primitives" : [
                {
                    "attributes" : {
                        "POSITION" : 17,
                        "NORMAL" : 18
                    },
                    "indices" : 19,
                    "material" : 8
                }
            ]
        }
    ],
    "accessors" : [
        {
            "bufferView" : 0,
            "componentType" : 5126,
            "count" : 2880,
            "max" : [
                1.1676608324050903,
                1.1676608324050903,
                1.1676608324050903
            ],
            "min" : [
                -1.1676608324050903,
                -1.1676608324050903,
                -1.1676608324050903
            ],
            "type" : "VEC3"
        },
        {
            "bufferView" : 1,
            "componentType" : 5126,
            "count" : 2880,
            "type" : "VEC3"
        },
        {
            "bufferView" : 2,
            "componentType" : 5123,
            "count" : 2880,
            "type" : "SCALAR"
        },
        {
            "bufferView" : 3,
            "componentType" : 5126,
            "count" : 2880,
            "max" : [
                1.1676608324050903,
                1.1676608324050903,
                1.1676608324050903
            ],
            "min" : [
                -1.1676608324050903,
                -1.1676608324050903,
                -1.1676608324050903
            ],
            "type" : "VEC3"
        },
        {
            "bufferView" : 4,
            "componentType" : 5126,
            "count" : 2880,
            "type" : "VEC3"
        },
        {
            "bufferView" : 5,
            "componentType" : 5126,
            "count" : 2880,
            "max" : [
                1.1676608324050903,
                1.1676608324050903,
                1.1676608324050903
            ],
            "min" : [
                -1.1676608324050903,
                -1.1676608324050903,
                -1.1676608324050903
            ],
            "type" : "VEC3"
        },
        {
            "bufferView" : 6,
            "componentType" : 5126,
            "count" : 2880,
            "type" : "VEC3"
        },
        {
            "bufferView" : 7,
            "componentType" : 5126,
            "count" : 2880,
            "max" : [
                1.1676608324050903,
                1.1676608324050903,
                1.1676608324050903
            ],
            "min" : [
                -1.1676608324050903,
                -1.1676608324050903,
                -1.1676608324050903
            ],
            "type" : "VEC3"
        },
        {
            "bufferView" : 8,
            "componentType" : 5126,
            "count" : 2880,
            "type" : "VEC3"
        },
        {
            "bufferView" : 9,
            "componentType" : 5126,
            "count" : 2880,
            "max" : [
                1.1676608324050903,
                1.1676608324050903,
                1.1676608324050903
            ],
            "min" : [
                -1.1676608324050903,
                -1.1676608324050903,
                -1.1676608324050903
            ],
            "type" : "VEC3"
        },
        {
            "bufferView" : 10,
            "componentType" : 5126,
            "count" : 2880,
            "type" : "VEC3"
        },
        {
            "bufferView" : 11,
            "componentType" : 5126,
            "count" : 2880,
            "max" : [
                1.1676608324050903,
                1.1676608324050903,
                1.1676608324050903
            ],
            "min" : [
                -1.1676608324050903,
                -1.1676608324050903,
                -1.1676608324050903
            ],
            "type" : "VEC3"
        },
        {
            "bufferView" : 12,
            "componentType" : 5126,
            "count" : 2880,
            "type" : "VEC3"
        },
        {
            "bufferView" : 13,
            "componentType" : 5126,
            "count" : 2880,
            "max" : [
                1.1676608324050903,
                1.1676608324050903,
                1.1676608324050903
            ],
            "min" : [
                -1.1676608324050903,
                -1.1676608324050903,
                -1.1676608324050903
            ],
            "type" : "VEC3"
        },
        {
            "bufferView" : 14,
            "componentType" : 5126,
            "count" : 2880,
            "type" : "VEC3"
        },
        {
            "bufferView" : 15,
            "componentType" : 5126,
            "count" : 2880,
            "max" : [
                1.1676608324050903,
                1.1676608324050903,
                1.1676608324050903
            ],
            "min" : [
                -1.1676608324050903,
                -1.1676608324050903,
                -1.1676608324050903
            ],
            "type" : "VEC3"
        },
        {
            "bufferView" : 16,
            "componentType" : 5126,
            "count" : 2880,
            "type" : "VEC3"
        },
        {
            "bufferView" : 17,
            "componentType" : 5126,
            "count" : 12254,
            "max" : [
                4.9033942222595215,
                4.499000549316406,
                2.8565094470977783
            ],
            "min" : [
                -4.2847514152526855,
                0,
                -2.8565094470977783
            ],
            "type" : "VEC3"
        },
        {
            "bufferView" : 18,
            "componentType" : 5126,
            "count" : 12254,
            "type" : "VEC3"
        },
        {
            "bufferView" : 19,
            "componentType" : 5123,
            "count" : 12288,
            "type" : "SCALAR"
        }
    ],
    "bufferViews" : [
        {
            "buffer" : 0,
            "byteLength" : 34560,
            "byteOffset" : 0
        },
        {
            "buffer" : 0,
            "byteLength" : 34560,
            "byteOffset" : 34560
        },
        {
            "buffer" : 0,
            "byteLength" : 5760,
            "byteOffset" : 69120
        },
        {
            "buffer" : 0,
            "byteLength" : 34560,
            "byteOffset" : 74880
        },
        {
            "buffer" : 0,
            "byteLength" : 34560,
            "byteOffset" : 109440
        },
        {
            "buffer" : 0,
            "byteLength" : 34560,
            "byteOffset" : 144000
        },
        {
            "buffer" : 0,
            "byteLength" : 34560,
            "byteOffset" : 178560
        },
        {
            "buffer" : 0,
            "byteLength" : 34560,
            "byteOffset" : 213120
        },
        {
            "buffer" : 0,
            "byteLength" : 34560,
            "byteOffset" : 247680
        },
        {
            "buffer" : 0,
            "byteLength" : 34560,
            "byteOffset" : 282240
        },
        {
            "buffer" : 0,
            "byteLength" : 34560,
            "byteOffset" : 316800
        },
        {
            "buffer" : 0,
            "byteLength" : 34560,
            "byteOffset" : 351360
        },
        {
            "buffer" : 0,
            "byteLength" : 34560,
            "byteOffset" : 385920
        },
        {
            "buffer" : 0,
            "byteLength" : 34560,
            "byteOffset" : 420480
        },
        {
            "buffer" : 0,
            "byteLength" : 34560,
            "byteOffset" : 455040
        },
        {
            "buffer" : 0,
            "byteLength" : 34560,
            "byteOffset" : 489600
        },
        {
            "buffer" : 0,
            "byteLength" : 34560,
            "byteOffset" : 524160
        },
        {
            "buffer" : 0,
            "byteLength" : 147048,
            "byteOffset" : 558720
        },
        {
            "buffer" : 0,
            "byteLength" : 147048,
            "byteOffset" : 705768
        },
        {
            "buffer" : 0,
            "byteLength" : 24576,
            "byteOffset" : 852816
        }
    ],
    "buffers" : [
        {
            "byteLength" : 877392,
            "uri" : "data:application/octet-stream;base64,"
        }
    ]
}
