{
    "asset" : {
        "generator" : "Khronos glTF Blender I/O v1.0.5",
        "version" : "2.0"
    },
    "scene" : 0,
    "scenes" : [
        {
            "name" : "Scene",
            "nodes" : [
                0
            ]
        }
    ],
    "nodes" : [
        {
            "mesh" : 0,
            "name" : "Body",
            "scale" : [
                0.3890726566314697,
                0.3890726566314697,
                0.3890726566314697
            ],
            "translation" : [
                0,
                0.07870623469352722,
                0.3049866557121277
            ]
        }
    ],
    "materials" : [
        {
            "doubleSided" : true,
            "name" : "Material_001",
            "pbrMetallicRoughness" : {
                "baseColorTexture" : {
                    "index" : 0,
                    "texCoord" : 0
                },
                "metallicFactor" : 0,
                "roughnessFactor" : 0.5
            }
        }
    ],
    "meshes" : [
        {
            "name" : "Cylinder",
            "primitives" : [
                {
                    "attributes" : {
                        "POSITION" : 0,
                        "NORMAL" : 1,
                        "TEXCOORD_0" : 2,
                        "TEXCOORD_1" : 3,
                        "TEXCOORD_2" : 4
                    },
                    "indices" : 5,
                    "material" : 0
                }
            ]
        }
    ],
    "textures" : [
        {
            "source" : 0
        }
    ],
    "images" : [
        {
            "bufferView" : 6,
            "mimeType" : "image/png",
            "name" : "deer1kb"
        }
    ],
    "accessors" : [
        {
            "bufferView" : 0,
            "componentType" : 5126,
            "count" : 2440,
            "max" : [
                1.6896778345108032,
                3.1995842456817627,
                2.591789722442627
            ],
            "min" : [
                -1.579124093055725,
                -3.761706590652466,
                -3.4478421211242676
            ],
            "type" : "VEC3"
        },
        {
            "bufferView" : 1,
            "componentType" : 5126,
            "count" : 2440,
            "type" : "VEC3"
        },
        {
            "bufferView" : 2,
            "componentType" : 5126,
            "count" : 2440,
            "type" : "VEC2"
        },
        {
            "bufferView" : 3,
            "componentType" : 5126,
            "count" : 2440,
            "type" : "VEC2"
        },
        {
            "bufferView" : 4,
            "componentType" : 5126,
            "count" : 2440,
            "type" : "VEC2"
        },
        {
            "bufferView" : 5,
            "componentType" : 5123,
            "count" : 10764,
            "type" : "SCALAR"
        }
    ],
    "bufferViews" : [
        {
            "buffer" : 0,
            "byteLength" : 29280,
            "byteOffset" : 0
        },
        {
            "buffer" : 0,
            "byteLength" : 29280,
            "byteOffset" : 29280
        },
        {
            "buffer" : 0,
            "byteLength" : 19520,
            "byteOffset" : 58560
        },
        {
            "buffer" : 0,
            "byteLength" : 19520,
            "byteOffset" : 78080
        },
        {
            "buffer" : 0,
            "byteLength" : 19520,
            "byteOffset" : 97600
        },
        {
            "buffer" : 0,
            "byteLength" : 21528,
            "byteOffset" : 117120
        },
        {
            "buffer" : 0,
            "byteLength" : 897816,
            "byteOffset" : 138648
        }
    ],
    "buffers" : [
        {
            "byteLength" : 1036464,
            "uri" : "data:application/octet-stream;base64,"
        }
    ]
}
