{
    "asset" : {
        "copyright" : "Sascha Willems",
        "generator" : "Khronos glTF Blender I/O v1.2.75",
        "version" : "2.0"
    },
    "scene" : 0,
    "scenes" : [
        {
            "name" : "Scene",
            "nodes" : [
                0,
                1,
                2,
                3
            ]
        }
    ],
    "nodes" : [
        {
            "mesh" : 0,
            "name" : "Cylinder.002_Cylinder.008",
            "rotation" : [
                0.7071068286895752,
                0,
                0,
                0.7071067094802856
            ],
            "scale" : [
                10,
                10,
                10
            ]
        },
        {
            "mesh" : 1,
            "name" : "Cylinder.001_Cylinder.007",
            "rotation" : [
                0.7071068286895752,
                0,
                0,
                0.7071067094802856
            ],
            "scale" : [
                10,
                10,
                10
            ]
        },
        {
            "mesh" : 2,
            "name" : "Plane",
            "rotation" : [
                0.7071068286895752,
                0,
                0,
                0.7071067094802856
            ],
            "scale" : [
                10,
                10,
                10
            ]
        },
        {
            "mesh" : 3,
            "name" : "Cylinder",
            "rotation" : [
                0.7071068286895752,
                0,
                0,
                0.7071067094802856
            ],
            "scale" : [
                10,
                10,
                10
            ]
        }
    ],
    "materials" : [
        {
            "doubleSided" : true,
            "emissiveFactor" : [
                0,
                0,
                0
            ],
            "name" : "Material.001",
            "pbrMetallicRoughness" : {
                "baseColorFactor" : [
                    1,
                    1,
                    1,
                    1
                ],
                "metallicFactor" : 0,
                "roughnessFactor" : 0.5
            }
        }
    ],
    "meshes" : [
        {
            "name" : "Cylinder.002_Cylinder.008",
            "primitives" : [
                {
                    "attributes" : {
                        "POSITION" : 0,
                        "NORMAL" : 1,
                        "TANGENT" : 2,
                        "TEXCOORD_0" : 3
                    },
                    "indices" : 4,
                    "material" : 0
                }
            ]
        },
        {
            "name" : "Cylinder.001_Cylinder.007",
            "primitives" : [
                {
                    "attributes" : {
                        "POSITION" : 5,
                        "NORMAL" : 6,
                        "TANGENT" : 7,
                        "TEXCOORD_0" : 8
                    },
                    "indices" : 9,
                    "material" : 0
                }
            ]
        },
        {
            "name" : "Plane",
            "primitives" : [
                {
                    "attributes" : {
                        "POSITION" : 10,
                        "NORMAL" : 11,
                        "TANGENT" : 12,
                        "TEXCOORD_0" : 13
                    },
                    "indices" : 14,
                    "material" : 0
                }
            ]
        },
        {
            "name" : "Cylinder",
            "primitives" : [
                {
                    "attributes" : {
                        "POSITION" : 15,
                        "NORMAL" : 16,
                        "TANGENT" : 17,
                        "TEXCOORD_0" : 18
                    },
                    "indices" : 19,
                    "material" : 0
                }
            ]
        }
    ],
    "accessors" : [
        {
            "bufferView" : 0,
            "componentType" : 5126,
            "count" : 576,
            "max" : [
                1.2157039642333984,
                0.864205002784729,
                0.08559799939393997
            ],
            "min" : [
                -1.2157039642333984,
                -0.864205002784729,
                -0.47668901085853577
            ],
            "type" : "VEC3"
        },
        {
            "bufferView" : 1,
            "componentType" : 5126,
            "count" : 576,
            "type" : "VEC3"
        },
        {
            "bufferView" : 2,
            "componentType" : 5126,
            "count" : 576,
            "type" : "VEC4"
        },
        {
            "bufferView" : 3,
            "componentType" : 5126,
            "count" : 576,
            "type" : "VEC2"
        },
        {
            "bufferView" : 4,
            "componentType" : 5123,
            "count" : 1140,
            "type" : "SCALAR"
        },
        {
            "bufferView" : 5,
            "componentType" : 5126,
            "count" : 576,
            "max" : [
                1.07498300075531,
                0.8700720071792603,
                0.08553899824619293
            ],
            "min" : [
                -1.07498300075531,
                -0.8700720071792603,
                -0.47663000226020813
            ],
            "type" : "VEC3"
        },
        {
            "bufferView" : 6,
            "componentType" : 5126,
            "count" : 576,
            "type" : "VEC3"
        },
        {
            "bufferView" : 7,
            "componentType" : 5126,
            "count" : 576,
            "type" : "VEC4"
        },
        {
            "bufferView" : 8,
            "componentType" : 5126,
            "count" : 576,
            "type" : "VEC2"
        },
        {
            "bufferView" : 9,
            "componentType" : 5123,
            "count" : 1140,
            "type" : "SCALAR"
        },
        {
            "bufferView" : 10,
            "componentType" : 5126,
            "count" : 4,
            "max" : [
                4.400000095367432,
                4.400000095367432,
                0
            ],
            "min" : [
                -4.400000095367432,
                -4.400000095367432,
                0
            ],
            "type" : "VEC3"
        },
        {
            "bufferView" : 11,
            "componentType" : 5126,
            "count" : 4,
            "type" : "VEC3"
        },
        {
            "bufferView" : 12,
            "componentType" : 5126,
            "count" : 4,
            "type" : "VEC4"
        },
        {
            "bufferView" : 13,
            "componentType" : 5126,
            "count" : 4,
            "type" : "VEC2"
        },
        {
            "bufferView" : 14,
            "componentType" : 5123,
            "count" : 6,
            "type" : "SCALAR"
        },
        {
            "bufferView" : 15,
            "componentType" : 5126,
            "count" : 514,
            "max" : [
                0.2816999852657318,
                1.2047170400619507,
                0.08615399897098541
            ],
            "min" : [
                -0.2816999852657318,
                -1.2047170400619507,
                -0.4772450029850006
            ],
            "type" : "VEC3"
        },
        {
            "bufferView" : 16,
            "componentType" : 5126,
            "count" : 514,
            "type" : "VEC3"
        },
        {
            "bufferView" : 17,
            "componentType" : 5126,
            "count" : 514,
            "type" : "VEC4"
        },
        {
            "bufferView" : 18,
            "componentType" : 5126,
            "count" : 514,
            "type" : "VEC2"
        },
        {
            "bufferView" : 19,
            "componentType" : 5123,
            "count" : 1140,
            "type" : "SCALAR"
        }
    ],
    "bufferViews" : [
        {
            "buffer" : 0,
            "byteLength" : 6912,
            "byteOffset" : 0
        },
        {
            "buffer" : 0,
            "byteLength" : 6912,
            "byteOffset" : 6912
        },
        {
            "buffer" : 0,
            "byteLength" : 9216,
            "byteOffset" : 13824
        },
        {
            "buffer" : 0,
            "byteLength" : 4608,
            "byteOffset" : 23040
        },
        {
            "buffer" : 0,
            "byteLength" : 2280,
            "byteOffset" : 27648
        },
        {
            "buffer" : 0,
            "byteLength" : 6912,
            "byteOffset" : 29928
        },
        {
            "buffer" : 0,
            "byteLength" : 6912,
            "byteOffset" : 36840
        },
        {
            "buffer" : 0,
            "byteLength" : 9216,
            "byteOffset" : 43752
        },
        {
            "buffer" : 0,
            "byteLength" : 4608,
            "byteOffset" : 52968
        },
        {
            "buffer" : 0,
            "byteLength" : 2280,
            "byteOffset" : 57576
        },
        {
            "buffer" : 0,
            "byteLength" : 48,
            "byteOffset" : 59856
        },
        {
            "buffer" : 0,
            "byteLength" : 48,
            "byteOffset" : 59904
        },
        {
            "buffer" : 0,
            "byteLength" : 64,
            "byteOffset" : 59952
        },
        {
            "buffer" : 0,
            "byteLength" : 32,
            "byteOffset" : 60016
        },
        {
            "buffer" : 0,
            "byteLength" : 12,
            "byteOffset" : 60048
        },
        {
            "buffer" : 0,
            "byteLength" : 6168,
            "byteOffset" : 60060
        },
        {
            "buffer" : 0,
            "byteLength" : 6168,
            "byteOffset" : 66228
        },
        {
            "buffer" : 0,
            "byteLength" : 8224,
            "byteOffset" : 72396
        },
        {
            "buffer" : 0,
            "byteLength" : 4112,
            "byteOffset" : 80620
        },
        {
            "buffer" : 0,
            "byteLength" : 2280,
            "byteOffset" : 84732
        }
    ],
    "buffers" : [
        {
            "byteLength" : 87012,
            "uri" : "data:application/octet-stream;base64,"
        }
    ]
}
