{
    "asset" : {
        "generator" : "Khronos glTF Blender I/O v1.0.5",
        "version" : "2.0"
    },
    "scene" : 0,
    "scenes" : [
        {
            "name" : "Scene",
            "nodes" : [
                0,
                1
            ]
        }
    ],
    "nodes" : [
        {
            "mesh" : 0,
            "name" : "tree.003",
            "rotation" : [
                0.7071068286895752,
                0,
                0,
                0.7071067094802856
            ],
            "scale" : [
                2,
                2,
                2
            ]
        },
        {
            "mesh" : 1,
            "name" : "tree.002",
            "rotation" : [
                0.7071068286895752,
                0,
                0,
                0.7071067094802856
            ],
            "scale" : [
                2,
                2,
                2
            ]
        }
    ],
    "materials" : [
        {
            "doubleSided" : true,
            "name" : "bark03",
            "pbrMetallicRoughness" : {
                "baseColorTexture" : {
                    "index" : 0,
                    "texCoord" : 0
                },
                "metallicFactor" : 0,
                "roughnessFactor" : 0.5
            }
        },
        {
            "alphaMode" : "BLEND",
            "doubleSided" : true,
            "name" : "oak leaf",
            "pbrMetallicRoughness" : {
                "baseColorTexture" : {
                    "index" : 1,
                    "texCoord" : 0
                },
                "metallicFactor" : 0,
                "roughnessFactor" : 0.5
            }
        }
    ],
    "meshes" : [
        {
            "name" : "tree.003",
            "primitives" : [
                {
                    "attributes" : {
                        "POSITION" : 0,
                        "NORMAL" : 1,
                        "TEXCOORD_0" : 2
                    },
                    "indices" : 3,
                    "material" : 0
                }
            ]
        },
        {
            "name" : "tree.002",
            "primitives" : [
                {
                    "attributes" : {
                        "POSITION" : 4,
                        "NORMAL" : 5,
                        "TEXCOORD_0" : 6
                    },
                    "indices" : 7,
                    "material" : 1
                }
            ]
        }
    ],
    "textures" : [
        {
            "source" : 0
        },
        {
            "source" : 1
        }
    ],
    "images" : [
        {
            "bufferView" : 4,
            "mimeType" : "image/png",
            "name" : "oak_bark"
        },
        {
            "bufferView" : 9,
            "mimeType" : "image/png",
            "name" : "oak_leafs"
        }
    ],
    "accessors" : [
        {
            "bufferView" : 0,
            "componentType" : 5126,
            "count" : 3119,
            "max" : [
                0.31731706857681274,
                0.2593679130077362,
                9.724001870381471e-08
            ],
            "min" : [
                -0.3307068943977356,
                -0.34412410855293274,
                -0.8959699869155884
            ],
            "type" : "VEC3"
        },
        {
            "bufferView" : 1,
            "componentType" : 5126,
            "count" : 3119,
            "type" : "VEC3"
        },
        {
            "bufferView" : 2,
            "componentType" : 5126,
            "count" : 3119,
            "type" : "VEC2"
        },
        {
            "bufferView" : 3,
            "componentType" : 5123,
            "count" : 12846,
            "type" : "SCALAR"
        },
        {
            "bufferView" : 5,
            "componentType" : 5126,
            "count" : 2380,
            "max" : [
                0.36367136240005493,
                0.30070775747299194,
                -0.19973865151405334
            ],
            "min" : [
                -0.3848615288734436,
                -0.4086419343948364,
                -0.9631245136260986
            ],
            "type" : "VEC3"
        },
        {
            "bufferView" : 6,
            "componentType" : 5126,
            "count" : 2380,
            "type" : "VEC3"
        },
        {
            "bufferView" : 7,
            "componentType" : 5126,
            "count" : 2380,
            "type" : "VEC2"
        },
        {
            "bufferView" : 8,
            "componentType" : 5123,
            "count" : 3060,
            "type" : "SCALAR"
        }
    ],
    "bufferViews" : [
        {
            "buffer" : 0,
            "byteLength" : 37428,
            "byteOffset" : 0
        },
        {
            "buffer" : 0,
            "byteLength" : 37428,
            "byteOffset" : 37428
        },
        {
            "buffer" : 0,
            "byteLength" : 24952,
            "byteOffset" : 74856
        },
        {
            "buffer" : 0,
            "byteLength" : 25692,
            "byteOffset" : 99808
        },
        {
            "buffer" : 0,
            "byteLength" : 852536,
            "byteOffset" : 125500
        },
        {
            "buffer" : 0,
            "byteLength" : 28560,
            "byteOffset" : 978036
        },
        {
            "buffer" : 0,
            "byteLength" : 28560,
            "byteOffset" : 1006596
        },
        {
            "buffer" : 0,
            "byteLength" : 19040,
            "byteOffset" : 1035156
        },
        {
            "buffer" : 0,
            "byteLength" : 6120,
            "byteOffset" : 1054196
        },
        {
            "buffer" : 0,
            "byteLength" : 215340,
            "byteOffset" : 1060316
        }
    ],
    "buffers" : [
        {
            "byteLength" : 1275656,
            "uri" : "data:application/octet-stream;base64,"
        }
    ]
}
