{
    "asset" : {
        "copyright" : "Sascha Willems",
        "generator" : "Khronos glTF Blender I/O v1.0.5",
        "version" : "2.0"
    },
    "scene" : 0,
    "scenes" : [
        {
            "name" : "Scene",
            "nodes" : [
                0,
                1,
                2,
                3,
                4,
                5,
                6,
                7,
                8,
                9,
                10,
                11
            ]
        }
    ],
    "nodes" : [
        {
            "mesh" : 0,
            "name" : "Teapot",
            "scale" : [
                0.3354874849319458,
                0.3354874849319458,
                0.3354874849319458
            ],
            "translation" : [
                0.15098515152931213,
                0.877753496170044,
                0.36616453528404236
            ]
        },
        {
            "mesh" : 1,
            "name" : "Sphere",
            "scale" : [
                0.25,
                0.25,
                0.25
            ],
            "translation" : [
                0.15098515152931213,
                0.7396917343139648,
                2.2411646842956543
            ]
        },
        {
            "mesh" : 1,
            "name" : "Sphere_001",
            "scale" : [
                0.25,
                0.25,
                0.25
            ],
            "translation" : [
                0.15098515152931213,
                0.7396917343139648,
                -1.5088353157043457
            ]
        },
        {
            "mesh" : 2,
            "name" : "Sphere_002",
            "scale" : [
                0.25,
                0.25,
                0.25
            ],
            "translation" : [
                2.0259852409362793,
                0.7396917343139648,
                0.36616453528404236
            ]
        },
        {
            "mesh" : 3,
            "name" : "Sphere_003",
            "scale" : [
                0.25,
                0.25,
                0.25
            ],
            "translation" : [
                -1.7240147590637207,
                0.7396917343139648,
                0.36616453528404236
            ]
        },
        {
            "mesh" : 4,
            "name" : "Sphere_004",
            "scale" : [
                0.25,
                0.25,
                0.25
            ],
            "translation" : [
                1.4634852409362793,
                0.7396917343139648,
                1.6786646842956543
            ]
        },
        {
            "mesh" : 4,
            "name" : "Sphere_005",
            "scale" : [
                0.25,
                0.25,
                0.25
            ],
            "translation" : [
                -1.1615147590637207,
                0.7396917343139648,
                -0.9463353157043457
            ]
        },
        {
            "mesh" : 5,
            "name" : "Sphere_006",
            "scale" : [
                0.25,
                0.25,
                0.25
            ],
            "translation" : [
                1.4634852409362793,
                0.7396917343139648,
                -0.9463353157043457
            ]
        },
        {
            "mesh" : 5,
            "name" : "Sphere_007",
            "scale" : [
                0.25,
                0.25,
                0.25
            ],
            "translation" : [
                -1.1615147590637207,
                0.7396917343139648,
                1.6786646842956543
            ]
        },
        {
            "mesh" : 6,
            "name" : "Plane_001_001",
            "scale" : [
                0.125,
                0.125,
                0.125
            ],
            "translation" : [
                0.15098515152931213,
                -0.006890773773193359,
                0.36616453528404236
            ]
        },
        {
            "mesh" : 7,
            "name" : "Sphere_008",
            "scale" : [
                -0.6194595098495483,
                -0.6194595098495483,
                -0.6194595098495483
            ],
            "translation" : [
                -1.7120361328125,
                0.7788670063018799,
                2.927499294281006
            ]
        },
        {
            "mesh" : 8,
            "name" : "Sphere_009",
            "scale" : [
                -0.5178999900817871,
                -0.5178999900817871,
                -0.5178999900817871
            ],
            "translation" : [
                2.6179466247558594,
                0.5903961658477783,
                -0.7305121421813965
            ]
        }
    ],
    "materials" : [
        {
            "doubleSided" : true,
            "name" : "m_reflect",
            "pbrMetallicRoughness" : {
                "baseColorFactor" : [
                    1,
                    1,
                    1,
                    1
                ],
                "metallicFactor" : 0,
                "roughnessFactor" : 0.5
            }
        },
        {
            "doubleSided" : true,
            "name" : "m0_01___Default_001",
            "pbrMetallicRoughness" : {
                "baseColorFactor" : [
                    0.800000011920929,
                    0,
                    0,
                    1
                ],
                "metallicFactor" : 0,
                "roughnessFactor" : 0.5
            }
        },
        {
            "doubleSided" : true,
            "name" : "m2_01___Default3",
            "pbrMetallicRoughness" : {
                "baseColorFactor" : [
                    0,
                    0.8235290050506592,
                    0.011998440138995647,
                    1
                ],
                "metallicFactor" : 0,
                "roughnessFactor" : 0.5
            }
        },
        {
            "doubleSided" : true,
            "name" : "m1_09___Default",
            "pbrMetallicRoughness" : {
                "baseColorFactor" : [
                    1,
                    0.7294120192527771,
                    0,
                    1
                ],
                "metallicFactor" : 0,
                "roughnessFactor" : 0.5
            }
        },
        {
            "doubleSided" : true,
            "name" : "m3_01___Default2",
            "pbrMetallicRoughness" : {
                "baseColorFactor" : [
                    0,
                    0.035294000059366226,
                    0.47450998425483704,
                    1
                ],
                "metallicFactor" : 0,
                "roughnessFactor" : 0.5
            }
        },
        {
            "doubleSided" : true,
            "name" : "Material_005",
            "pbrMetallicRoughness" : {
                "baseColorFactor" : [
                    1,
                    1,
                    1,
                    1
                ],
                "metallicFactor" : 0,
                "roughnessFactor" : 0.5
            }
        },
        {
            "doubleSided" : true,
            "name" : "Material_004",
            "pbrMetallicRoughness" : {
                "baseColorFactor" : [
                    0,
                    0,
                    0,
                    1
                ],
                "metallicFactor" : 0,
                "roughnessFactor" : 0.5
            }
        }
    ],
    "meshes" : [
        {
            "name" : "Teapot",
            "primitives" : [
                {
                    "attributes" : {
                        "POSITION" : 0,
                        "NORMAL" : 1
                    },
                    "indices" : 2,
                    "material" : 0
                }
            ]
        },
        {
            "name" : "Sphere",
            "primitives" : [
                {
                    "attributes" : {
                        "POSITION" : 3,
                        "NORMAL" : 4
                    },
                    "indices" : 5,
                    "material" : 1
                }
            ]
        },
        {
            "name" : "Sphere.002",
            "primitives" : [
                {
                    "attributes" : {
                        "POSITION" : 6,
                        "NORMAL" : 7
                    },
                    "indices" : 5,
                    "material" : 2
                }
            ]
        },
        {
            "name" : "Sphere.001",
            "primitives" : [
                {
                    "attributes" : {
                        "POSITION" : 8,
                        "NORMAL" : 9
                    },
                    "indices" : 5,
                    "material" : 2
                }
            ]
        },
        {
            "name" : "Sphere.003",
            "primitives" : [
                {
                    "attributes" : {
                        "POSITION" : 10,
                        "NORMAL" : 11
                    },
                    "indices" : 5,
                    "material" : 3
                }
            ]
        },
        {
            "name" : "Sphere.004",
            "primitives" : [
                {
                    "attributes" : {
                        "POSITION" : 12,
                        "NORMAL" : 13
                    },
                    "indices" : 5,
                    "material" : 4
                }
            ]
        },
        {
            "name" : "Plane.000",
            "primitives" : [
                {
                    "attributes" : {
                        "POSITION" : 14,
                        "NORMAL" : 15,
                        "TEXCOORD_0" : 16
                    },
                    "indices" : 17,
                    "material" : 5
                },
                {
                    "attributes" : {
                        "POSITION" : 18,
                        "NORMAL" : 19,
                        "TEXCOORD_0" : 20
                    },
                    "indices" : 21,
                    "material" : 6
                }
            ]
        },
        {
            "name" : "Sphere.005",
            "primitives" : [
                {
                    "attributes" : {
                        "POSITION" : 22,
                        "NORMAL" : 23
                    },
                    "indices" : 24,
                    "material" : 0
                }
            ]
        },
        {
            "name" : "Sphere.006",
            "primitives" : [
                {
                    "attributes" : {
                        "POSITION" : 25,
                        "NORMAL" : 26
                    },
                    "indices" : 24,
                    "material" : 0
                }
            ]
        }
    ],
    "accessors" : [
        {
            "bufferView" : 0,
            "componentType" : 5126,
            "count" : 4690,
            "max" : [
                3.3942089080810547,
                1.428279995918274,
                2
            ],
            "min" : [
                -3.0398330688476562,
                -1.7217199802398682,
                -2
            ],
            "type" : "VEC3"
        },
        {
            "bufferView" : 1,
            "componentType" : 5126,
            "count" : 4690,
            "type" : "VEC3"
        },
        {
            "bufferView" : 2,
            "componentType" : 5123,
            "count" : 27384,
            "type" : "SCALAR"
        },
        {
            "bufferView" : 3,
            "componentType" : 5126,
            "count" : 3842,
            "max" : [
                0.9964627027511597,
                0.9976217150688171,
                0.9967479109764099
            ],
            "min" : [
                -0.9964627027511597,
                -0.9976217150688171,
                -0.9967479109764099
            ],
            "type" : "VEC3"
        },
        {
            "bufferView" : 4,
            "componentType" : 5126,
            "count" : 3842,
            "type" : "VEC3"
        },
        {
            "bufferView" : 5,
            "componentType" : 5123,
            "count" : 23040,
            "type" : "SCALAR"
        },
        {
            "bufferView" : 6,
            "componentType" : 5126,
            "count" : 3842,
            "max" : [
                0.9964627027511597,
                0.9976217150688171,
                0.9967479109764099
            ],
            "min" : [
                -0.9964627027511597,
                -0.9976217150688171,
                -0.9967479109764099
            ],
            "type" : "VEC3"
        },
        {
            "bufferView" : 7,
            "componentType" : 5126,
            "count" : 3842,
            "type" : "VEC3"
        },
        {
            "bufferView" : 8,
            "componentType" : 5126,
            "count" : 3842,
            "max" : [
                0.9964627027511597,
                0.9976217150688171,
                0.9967479109764099
            ],
            "min" : [
                -0.9964627027511597,
                -0.9976217150688171,
                -0.9967479109764099
            ],
            "type" : "VEC3"
        },
        {
            "bufferView" : 9,
            "componentType" : 5126,
            "count" : 3842,
            "type" : "VEC3"
        },
        {
            "bufferView" : 10,
            "componentType" : 5126,
            "count" : 3842,
            "max" : [
                0.9964627027511597,
                0.9976217150688171,
                0.9967479109764099
            ],
            "min" : [
                -0.9964627027511597,
                -0.9976217150688171,
                -0.9967479109764099
            ],
            "type" : "VEC3"
        },
        {
            "bufferView" : 11,
            "componentType" : 5126,
            "count" : 3842,
            "type" : "VEC3"
        },
        {
            "bufferView" : 12,
            "componentType" : 5126,
            "count" : 3842,
            "max" : [
                0.9964627027511597,
                0.9976217150688171,
                0.9967479109764099
            ],
            "min" : [
                -0.9964627027511597,
                -0.9976217150688171,
                -0.9967479109764099
            ],
            "type" : "VEC3"
        },
        {
            "bufferView" : 13,
            "componentType" : 5126,
            "count" : 3842,
            "type" : "VEC3"
        },
        {
            "bufferView" : 14,
            "componentType" : 5126,
            "count" : 174,
            "max" : [
                30,
                0,
                30
            ],
            "min" : [
                -30,
                0,
                -30
            ],
            "type" : "VEC3"
        },
        {
            "bufferView" : 15,
            "componentType" : 5126,
            "count" : 174,
            "type" : "VEC3"
        },
        {
            "bufferView" : 16,
            "componentType" : 5126,
            "count" : 174,
            "type" : "VEC2"
        },
        {
            "bufferView" : 17,
            "componentType" : 5123,
            "count" : 240,
            "type" : "SCALAR"
        },
        {
            "bufferView" : 18,
            "componentType" : 5126,
            "count" : 185,
            "max" : [
                30,
                0,
                30
            ],
            "min" : [
                -30,
                0,
                -30
            ],
            "type" : "VEC3"
        },
        {
            "bufferView" : 19,
            "componentType" : 5126,
            "count" : 185,
            "type" : "VEC3"
        },
        {
            "bufferView" : 20,
            "componentType" : 5126,
            "count" : 185,
            "type" : "VEC2"
        },
        {
            "bufferView" : 21,
            "componentType" : 5123,
            "count" : 246,
            "type" : "SCALAR"
        },
        {
            "bufferView" : 22,
            "componentType" : 5126,
            "count" : 1986,
            "max" : [
                0.9904161095619202,
                0.9989992380142212,
                0.9904155135154724
            ],
            "min" : [
                -0.990415632724762,
                -0.9989992380142212,
                -0.9904159307479858
            ],
            "type" : "VEC3"
        },
        {
            "bufferView" : 23,
            "componentType" : 5126,
            "count" : 1986,
            "type" : "VEC3"
        },
        {
            "bufferView" : 24,
            "componentType" : 5123,
            "count" : 11904,
            "type" : "SCALAR"
        },
        {
            "bufferView" : 25,
            "componentType" : 5126,
            "count" : 1986,
            "max" : [
                0.9904161095619202,
                0.9989992380142212,
                0.9904155135154724
            ],
            "min" : [
                -0.990415632724762,
                -0.9989992380142212,
                -0.9904159307479858
            ],
            "type" : "VEC3"
        },
        {
            "bufferView" : 26,
            "componentType" : 5126,
            "count" : 1986,
            "type" : "VEC3"
        }
    ],
    "bufferViews" : [
        {
            "buffer" : 0,
            "byteLength" : 56280,
            "byteOffset" : 0
        },
        {
            "buffer" : 0,
            "byteLength" : 56280,
            "byteOffset" : 56280
        },
        {
            "buffer" : 0,
            "byteLength" : 54768,
            "byteOffset" : 112560
        },
        {
            "buffer" : 0,
            "byteLength" : 46104,
            "byteOffset" : 167328
        },
        {
            "buffer" : 0,
            "byteLength" : 46104,
            "byteOffset" : 213432
        },
        {
            "buffer" : 0,
            "byteLength" : 46080,
            "byteOffset" : 259536
        },
        {
            "buffer" : 0,
            "byteLength" : 46104,
            "byteOffset" : 305616
        },
        {
            "buffer" : 0,
            "byteLength" : 46104,
            "byteOffset" : 351720
        },
        {
            "buffer" : 0,
            "byteLength" : 46104,
            "byteOffset" : 397824
        },
        {
            "buffer" : 0,
            "byteLength" : 46104,
            "byteOffset" : 443928
        },
        {
            "buffer" : 0,
            "byteLength" : 46104,
            "byteOffset" : 490032
        },
        {
            "buffer" : 0,
            "byteLength" : 46104,
            "byteOffset" : 536136
        },
        {
            "buffer" : 0,
            "byteLength" : 46104,
            "byteOffset" : 582240
        },
        {
            "buffer" : 0,
            "byteLength" : 46104,
            "byteOffset" : 628344
        },
        {
            "buffer" : 0,
            "byteLength" : 2088,
            "byteOffset" : 674448
        },
        {
            "buffer" : 0,
            "byteLength" : 2088,
            "byteOffset" : 676536
        },
        {
            "buffer" : 0,
            "byteLength" : 1392,
            "byteOffset" : 678624
        },
        {
            "buffer" : 0,
            "byteLength" : 480,
            "byteOffset" : 680016
        },
        {
            "buffer" : 0,
            "byteLength" : 2220,
            "byteOffset" : 680496
        },
        {
            "buffer" : 0,
            "byteLength" : 2220,
            "byteOffset" : 682716
        },
        {
            "buffer" : 0,
            "byteLength" : 1480,
            "byteOffset" : 684936
        },
        {
            "buffer" : 0,
            "byteLength" : 492,
            "byteOffset" : 686416
        },
        {
            "buffer" : 0,
            "byteLength" : 23832,
            "byteOffset" : 686908
        },
        {
            "buffer" : 0,
            "byteLength" : 23832,
            "byteOffset" : 710740
        },
        {
            "buffer" : 0,
            "byteLength" : 23808,
            "byteOffset" : 734572
        },
        {
            "buffer" : 0,
            "byteLength" : 23832,
            "byteOffset" : 758380
        },
        {
            "buffer" : 0,
            "byteLength" : 23832,
            "byteOffset" : 782212
        }
    ],
    "buffers" : [
        {
            "byteLength" : 806044,
            "uri" : "data:application/octet-stream;base64,"
        }
    ]
}
