{
    "asset" : {
        "copyright" : "Sascha Willems",
        "generator" : "Khronos glTF Blender I/O v1.0.5",
        "version" : "2.0"
    },
    "scene" : 0,
    "scenes" : [
        {
            "name" : "Scene",
            "nodes" : [
                0,
                1,
                2,
                3,
                4,
                5,
                6,
                7,
                8,
                9,
                10,
                11,
                12
            ]
        }
    ],
    "nodes" : [
        {
            "mesh" : 0,
            "name" : "Plane_001",
            "rotation" : [
                0,
                0,
                -0.7071067690849304,
                0.7071068286895752
            ],
            "scale" : [
                1.5,
                1.5,
                1.5
            ],
            "translation" : [
                4,
                1,
                -2
            ]
        },
        {
            "mesh" : 0,
            "name" : "Plane_000",
            "rotation" : [
                0,
                0,
                -0.7071067690849304,
                0.7071068286895752
            ],
            "scale" : [
                1.5,
                1.5,
                1.5
            ],
            "translation" : [
                4,
                1,
                2
            ]
        },
        {
            "mesh" : 0,
            "name" : "Plane_002",
            "rotation" : [
                0.5000000596046448,
                -0.5,
                -0.4999999403953552,
                0.4999999701976776
            ],
            "scale" : [
                1.5,
                1.5,
                1.5
            ],
            "translation" : [
                2,
                1,
                4
            ]
        },
        {
            "mesh" : 0,
            "name" : "Plane_003",
            "rotation" : [
                0.5000000596046448,
                -0.5,
                -0.4999999403953552,
                0.4999999701976776
            ],
            "scale" : [
                1.5,
                1.5,
                1.5
            ],
            "translation" : [
                -2,
                1,
                4
            ]
        },
        {
            "mesh" : 0,
            "name" : "Plane_004",
            "rotation" : [
                0.5000000596046448,
                -0.5,
                -0.4999999403953552,
                0.4999999701976776
            ],
            "scale" : [
                1.5,
                1.5,
                1.5
            ],
            "translation" : [
                -2,
                1,
                -4
            ]
        },
        {
            "mesh" : 0,
            "name" : "Plane_005",
            "rotation" : [
                0,
                0,
                -0.7071067690849304,
                0.7071068286895752
            ],
            "scale" : [
                1.5,
                1.5,
                1.5
            ],
            "translation" : [
                -4,
                1,
                -2
            ]
        },
        {
            "mesh" : 0,
            "name" : "Plane_006",
            "rotation" : [
                0.5000000596046448,
                -0.5,
                -0.4999999403953552,
                0.4999999701976776
            ],
            "scale" : [
                1.5,
                1.5,
                1.5
            ],
            "translation" : [
                -2,
                1,
                4
            ]
        },
        {
            "mesh" : 1,
            "name" : "Plane",
            "translation" : [
                0,
                3.4268798828125,
                0
            ]
        },
        {
            "mesh" : 2,
            "name" : "Circle_002",
            "rotation" : [
                0.7071067690849304,
                0,
                0,
                0.7071068286895752
            ],
            "scale" : [
                2.0968968868255615,
                1.6639399528503418,
                1.6639399528503418
            ],
            "translation" : [
                6,
                3.4676311016082764,
                -8
            ]
        },
        {
            "mesh" : 2,
            "name" : "Circle_003",
            "rotation" : [
                0.4999999701976776,
                0.5,
                -0.5000001192092896,
                0.49999988079071045
            ],
            "scale" : [
                2.0968968868255615,
                1.6639399528503418,
                1.6639399528503418
            ],
            "translation" : [
                -8,
                3.4676311016082764,
                6
            ]
        },
        {
            "mesh" : 3,
            "name" : "Cylinder_044",
            "scale" : [
                0.699999988079071,
                2.879999876022339,
                0.699999988079071
            ],
            "translation" : [
                0,
                6.302182197570801,
                0
            ]
        },
        {
            "mesh" : 2,
            "name" : "Circle_004",
            "rotation" : [
                0.7071067690849304,
                0,
                0,
                0.7071068286895752
            ],
            "scale" : [
                2.0968968868255615,
                1.6639399528503418,
                1.6639399528503418
            ],
            "translation" : [
                6,
                3.4676311016082764,
                0
            ]
        },
        {
            "mesh" : 4,
            "name" : "Circle_005",
            "rotation" : [
                0.4999999701976776,
                0.5,
                -0.5000001192092896,
                0.49999988079071045
            ],
            "scale" : [
                2.0968968868255615,
                1.6639399528503418,
                1.6639399528503418
            ],
            "translation" : [
                0,
                3.4676311016082764,
                6
            ]
        }
    ],
    "materials" : [
        {
            "doubleSided" : true,
            "name" : "Material_001",
            "pbrMetallicRoughness" : {
                "baseColorFactor" : [
                    0.6399999856948853,
                    0.6399999856948853,
                    0.6399999856948853,
                    1
                ],
                "metallicFactor" : 0,
                "roughnessFactor" : 0.5
            }
        }
    ],
    "meshes" : [
        {
            "name" : "Plane.001",
            "primitives" : [
                {
                    "attributes" : {
                        "POSITION" : 0,
                        "NORMAL" : 1,
                        "TEXCOORD_0" : 2
                    },
                    "indices" : 3,
                    "material" : 0
                }
            ]
        },
        {
            "name" : "Plane.003",
            "primitives" : [
                {
                    "attributes" : {
                        "POSITION" : 4,
                        "NORMAL" : 5,
                        "TEXCOORD_0" : 6
                    },
                    "indices" : 7,
                    "material" : 0
                }
            ]
        },
        {
            "name" : "Circle.001",
            "primitives" : [
                {
                    "attributes" : {
                        "POSITION" : 8,
                        "NORMAL" : 9,
                        "TEXCOORD_0" : 10
                    },
                    "indices" : 11,
                    "material" : 0
                }
            ]
        },
        {
            "name" : "Cylinder.001",
            "primitives" : [
                {
                    "attributes" : {
                        "POSITION" : 12,
                        "NORMAL" : 13,
                        "TEXCOORD_0" : 14
                    },
                    "indices" : 15,
                    "material" : 0
                }
            ]
        },
        {
            "name" : "Circle.004",
            "primitives" : [
                {
                    "attributes" : {
                        "POSITION" : 16,
                        "NORMAL" : 17,
                        "TEXCOORD_0" : 18
                    },
                    "indices" : 11,
                    "material" : 0
                }
            ]
        }
    ],
    "accessors" : [
        {
            "bufferView" : 0,
            "componentType" : 5126,
            "count" : 4,
            "max" : [
                1,
                0,
                1
            ],
            "min" : [
                -1,
                0,
                -1
            ],
            "type" : "VEC3"
        },
        {
            "bufferView" : 1,
            "componentType" : 5126,
            "count" : 4,
            "type" : "VEC3"
        },
        {
            "bufferView" : 2,
            "componentType" : 5126,
            "count" : 4,
            "type" : "VEC2"
        },
        {
            "bufferView" : 3,
            "componentType" : 5123,
            "count" : 6,
            "type" : "SCALAR"
        },
        {
            "bufferView" : 4,
            "componentType" : 5126,
            "count" : 108,
            "max" : [
                3,
                -2.3841900542720396e-07,
                3
            ],
            "min" : [
                -3,
                -2.3841900542720396e-07,
                -3
            ],
            "type" : "VEC3"
        },
        {
            "bufferView" : 5,
            "componentType" : 5126,
            "count" : 108,
            "type" : "VEC3"
        },
        {
            "bufferView" : 6,
            "componentType" : 5126,
            "count" : 108,
            "type" : "VEC2"
        },
        {
            "bufferView" : 7,
            "componentType" : 5123,
            "count" : 108,
            "type" : "SCALAR"
        },
        {
            "bufferView" : 8,
            "componentType" : 5126,
            "count" : 48,
            "max" : [
                1,
                0,
                0
            ],
            "min" : [
                -1,
                0,
                -0.9999999403953552
            ],
            "type" : "VEC3"
        },
        {
            "bufferView" : 9,
            "componentType" : 5126,
            "count" : 48,
            "type" : "VEC3"
        },
        {
            "bufferView" : 10,
            "componentType" : 5126,
            "count" : 48,
            "type" : "VEC2"
        },
        {
            "bufferView" : 11,
            "componentType" : 5123,
            "count" : 48,
            "type" : "SCALAR"
        },
        {
            "bufferView" : 12,
            "componentType" : 5126,
            "count" : 214,
            "max" : [
                1,
                1,
                1
            ],
            "min" : [
                -1,
                -1,
                -1
            ],
            "type" : "VEC3"
        },
        {
            "bufferView" : 13,
            "componentType" : 5126,
            "count" : 214,
            "type" : "VEC3"
        },
        {
            "bufferView" : 14,
            "componentType" : 5126,
            "count" : 214,
            "type" : "VEC2"
        },
        {
            "bufferView" : 15,
            "componentType" : 5123,
            "count" : 282,
            "type" : "SCALAR"
        },
        {
            "bufferView" : 16,
            "componentType" : 5126,
            "count" : 48,
            "max" : [
                1,
                0,
                0
            ],
            "min" : [
                -1,
                0,
                -0.9999999403953552
            ],
            "type" : "VEC3"
        },
        {
            "bufferView" : 17,
            "componentType" : 5126,
            "count" : 48,
            "type" : "VEC3"
        },
        {
            "bufferView" : 18,
            "componentType" : 5126,
            "count" : 48,
            "type" : "VEC2"
        }
    ],
    "bufferViews" : [
        {
            "buffer" : 0,
            "byteLength" : 48,
            "byteOffset" : 0
        },
        {
            "buffer" : 0,
            "byteLength" : 48,
            "byteOffset" : 48
        },
        {
            "buffer" : 0,
            "byteLength" : 32,
            "byteOffset" : 96
        },
        {
            "buffer" : 0,
            "byteLength" : 12,
            "byteOffset" : 128
        },
        {
            "buffer" : 0,
            "byteLength" : 1296,
            "byteOffset" : 140
        },
        {
            "buffer" : 0,
            "byteLength" : 1296,
            "byteOffset" : 1436
        },
        {
            "buffer" : 0,
            "byteLength" : 864,
            "byteOffset" : 2732
        },
        {
            "buffer" : 0,
            "byteLength" : 216,
            "byteOffset" : 3596
        },
        {
            "buffer" : 0,
            "byteLength" : 576,
            "byteOffset" : 3812
        },
        {
            "buffer" : 0,
            "byteLength" : 576,
            "byteOffset" : 4388
        },
        {
            "buffer" : 0,
            "byteLength" : 384,
            "byteOffset" : 4964
        },
        {
            "buffer" : 0,
            "byteLength" : 96,
            "byteOffset" : 5348
        },
        {
            "buffer" : 0,
            "byteLength" : 2568,
            "byteOffset" : 5444
        },
        {
            "buffer" : 0,
            "byteLength" : 2568,
            "byteOffset" : 8012
        },
        {
            "buffer" : 0,
            "byteLength" : 1712,
            "byteOffset" : 10580
        },
        {
            "buffer" : 0,
            "byteLength" : 564,
            "byteOffset" : 12292
        },
        {
            "buffer" : 0,
            "byteLength" : 576,
            "byteOffset" : 12856
        },
        {
            "buffer" : 0,
            "byteLength" : 576,
            "byteOffset" : 13432
        },
        {
            "buffer" : 0,
            "byteLength" : 384,
            "byteOffset" : 14008
        }
    ],
    "buffers" : [
        {
            "byteLength" : 14392,
            "uri" : "data:application/octet-stream;base64,"
        }
    ]
}
