{
    "asset" : {
        "copyright" : "Sascha Willems",
        "generator" : "Khronos glTF Blender I/O v1.0.5",
        "version" : "2.0"
    },
    "scene" : 0,
    "scenes" : [
        {
            "name" : "Scene",
            "nodes" : [
                0,
                1,
                2,
                3,
                4,
                5,
                6,
                7,
                8,
                9
            ]
        }
    ],
    "nodes" : [
        {
            "mesh" : 0,
            "name" : "Teapot01_Teapot01",
            "rotation" : [
                0.7071068286895752,
                0,
                0,
                0.7071067094802856
            ],
            "scale" : [
                0.25,
                0.25,
                0.25
            ]
        },
        {
            "mesh" : 1,
            "name" : "Cylinder01_Cylinder01",
            "rotation" : [
                0.7071068286895752,
                0,
                0,
                0.7071067094802856
            ],
            "scale" : [
                0.25,
                0.25,
                0.25
            ]
        },
        {
            "mesh" : 2,
            "name" : "Plane03_Plane03",
            "rotation" : [
                0.7071068286895752,
                0,
                0,
                0.7071067094802856
            ],
            "scale" : [
                0.25,
                0.25,
                0.25
            ]
        },
        {
            "mesh" : 3,
            "name" : "Plane02_Plane02",
            "rotation" : [
                0.7071068286895752,
                0,
                0,
                0.7071067094802856
            ],
            "scale" : [
                0.25,
                0.25,
                0.25
            ]
        },
        {
            "mesh" : 4,
            "name" : "Cylinder03_Cylinder02",
            "rotation" : [
                0.7071068286895752,
                0,
                0,
                0.7071067094802856
            ],
            "scale" : [
                0.25,
                0.25,
                0.25
            ]
        },
        {
            "mesh" : 5,
            "name" : "Plane01_Plane01",
            "rotation" : [
                0.7071068286895752,
                0,
                0,
                0.7071067094802856
            ],
            "scale" : [
                0.25,
                0.25,
                0.25
            ]
        },
        {
            "mesh" : 6,
            "name" : "Sphere01_Sphere01",
            "rotation" : [
                0.7071068286895752,
                0,
                0,
                0.7071067094802856
            ],
            "scale" : [
                0.25,
                0.25,
                0.25
            ]
        },
        {
            "mesh" : 7,
            "name" : "Box03_Box02",
            "rotation" : [
                0.7071068286895752,
                0,
                0,
                0.7071067094802856
            ],
            "scale" : [
                0.25,
                0.25,
                0.25
            ]
        },
        {
            "mesh" : 8,
            "name" : "Cylinder02_Cylinder02",
            "rotation" : [
                0.7071068286895752,
                0,
                0,
                0.7071067094802856
            ],
            "scale" : [
                0.25,
                0.25,
                0.25
            ]
        },
        {
            "mesh" : 9,
            "name" : "Box02_Box02",
            "rotation" : [
                0.7071068286895752,
                0,
                0,
                0.7071067094802856
            ],
            "scale" : [
                0.25,
                0.25,
                0.25
            ]
        }
    ],
    "materials" : [
        {
            "doubleSided" : true,
            "name" : "_02_-_Default.001",
            "pbrMetallicRoughness" : {
                "baseColorFactor" : [
                    0.6399999856948853,
                    0.6399999856948853,
                    0.6399999856948853,
                    1
                ],
                "metallicFactor" : 0,
                "roughnessFactor" : 0.5
            }
        },
        {
            "doubleSided" : true,
            "name" : "_07_-_Default.001",
            "pbrMetallicRoughness" : {
                "baseColorFactor" : [
                    0.6399999856948853,
                    0.6399999856948853,
                    0.6399999856948853,
                    1
                ],
                "metallicFactor" : 0,
                "roughnessFactor" : 0.5
            }
        },
        {
            "doubleSided" : true,
            "name" : "_03_-_Default.001",
            "pbrMetallicRoughness" : {
                "baseColorFactor" : [
                    0.6399999856948853,
                    0.6399999856948853,
                    0.6399999856948853,
                    1
                ],
                "metallicFactor" : 0,
                "roughnessFactor" : 0.5
            }
        },
        {
            "doubleSided" : true,
            "name" : "_08_-_Default.001",
            "pbrMetallicRoughness" : {
                "baseColorFactor" : [
                    0.6399999856948853,
                    0.6399999856948853,
                    0.6399999856948853,
                    1
                ],
                "metallicFactor" : 0,
                "roughnessFactor" : 0.5
            }
        },
        {
            "doubleSided" : true,
            "name" : "_01_-_Default.001",
            "pbrMetallicRoughness" : {
                "baseColorFactor" : [
                    0.6399999856948853,
                    0.6399999856948853,
                    0.6399999856948853,
                    1
                ],
                "metallicFactor" : 0,
                "roughnessFactor" : 0.5
            }
        }
    ],
    "meshes" : [
        {
            "name" : "Teapot01_Teapot01.001",
            "primitives" : [
                {
                    "attributes" : {
                        "POSITION" : 0,
                        "NORMAL" : 1,
                        "TEXCOORD_0" : 2
                    },
                    "indices" : 3,
                    "material" : 0
                }
            ]
        },
        {
            "name" : "Cylinder01_Cylinder01.001",
            "primitives" : [
                {
                    "attributes" : {
                        "POSITION" : 4,
                        "NORMAL" : 5,
                        "TEXCOORD_0" : 6
                    },
                    "indices" : 7,
                    "material" : 1
                }
            ]
        },
        {
            "name" : "Plane03_Plane03.001",
            "primitives" : [
                {
                    "attributes" : {
                        "POSITION" : 8,
                        "NORMAL" : 9,
                        "TEXCOORD_0" : 10
                    },
                    "indices" : 11,
                    "material" : 2
                }
            ]
        },
        {
            "name" : "Plane02_Plane02.001",
            "primitives" : [
                {
                    "attributes" : {
                        "POSITION" : 12,
                        "NORMAL" : 13,
                        "TEXCOORD_0" : 14
                    },
                    "indices" : 11,
                    "material" : 2
                }
            ]
        },
        {
            "name" : "Cylinder03_Cylinder02.001",
            "primitives" : [
                {
                    "attributes" : {
                        "POSITION" : 15,
                        "NORMAL" : 16,
                        "TEXCOORD_0" : 17
                    },
                    "indices" : 18,
                    "material" : 1
                }
            ]
        },
        {
            "name" : "Plane01_Plane01.001",
            "primitives" : [
                {
                    "attributes" : {
                        "POSITION" : 19,
                        "NORMAL" : 20,
                        "TEXCOORD_0" : 21
                    },
                    "indices" : 11,
                    "material" : 2
                }
            ]
        },
        {
            "name" : "Sphere01_Sphere01.001",
            "primitives" : [
                {
                    "attributes" : {
                        "POSITION" : 22,
                        "NORMAL" : 23,
                        "TEXCOORD_0" : 24
                    },
                    "indices" : 25,
                    "material" : 3
                }
            ]
        },
        {
            "name" : "Box03_Box02.001",
            "primitives" : [
                {
                    "attributes" : {
                        "POSITION" : 26,
                        "NORMAL" : 27,
                        "TEXCOORD_0" : 28
                    },
                    "indices" : 29,
                    "material" : 4
                }
            ]
        },
        {
            "name" : "Cylinder02_Cylinder02.001",
            "primitives" : [
                {
                    "attributes" : {
                        "POSITION" : 30,
                        "NORMAL" : 31,
                        "TEXCOORD_0" : 32
                    },
                    "indices" : 33,
                    "material" : 1
                }
            ]
        },
        {
            "name" : "Box02_Box02.001",
            "primitives" : [
                {
                    "attributes" : {
                        "POSITION" : 34,
                        "NORMAL" : 35,
                        "TEXCOORD_0" : 36
                    },
                    "indices" : 37,
                    "material" : 4
                }
            ]
        }
    ],
    "accessors" : [
        {
            "bufferView" : 0,
            "componentType" : 5126,
            "count" : 644,
            "max" : [
                -0.646140992641449,
                12.984099388122559,
                -9.889861106872559
            ],
            "min" : [
                -13.208199501037598,
                2.1788899898529053,
                -17.83930015563965
            ],
            "type" : "VEC3"
        },
        {
            "bufferView" : 1,
            "componentType" : 5126,
            "count" : 644,
            "type" : "VEC3"
        },
        {
            "bufferView" : 2,
            "componentType" : 5126,
            "count" : 644,
            "type" : "VEC2"
        },
        {
            "bufferView" : 3,
            "componentType" : 5123,
            "count" : 2976,
            "type" : "SCALAR"
        },
        {
            "bufferView" : 4,
            "componentType" : 5126,
            "count" : 95,
            "max" : [
                -10.783899307250977,
                -10.718199729919434,
                0
            ],
            "min" : [
                -13.764699935913086,
                -13.656299591064453,
                -17.406599044799805
            ],
            "type" : "VEC3"
        },
        {
            "bufferView" : 5,
            "componentType" : 5126,
            "count" : 95,
            "type" : "VEC3"
        },
        {
            "bufferView" : 6,
            "componentType" : 5126,
            "count" : 95,
            "type" : "VEC2"
        },
        {
            "bufferView" : 7,
            "componentType" : 5123,
            "count" : 216,
            "type" : "SCALAR"
        },
        {
            "bufferView" : 8,
            "componentType" : 5126,
            "count" : 25,
            "max" : [
                30,
                30,
                0
            ],
            "min" : [
                30,
                -30,
                -30
            ],
            "type" : "VEC3"
        },
        {
            "bufferView" : 9,
            "componentType" : 5126,
            "count" : 25,
            "type" : "VEC3"
        },
        {
            "bufferView" : 10,
            "componentType" : 5126,
            "count" : 25,
            "type" : "VEC2"
        },
        {
            "bufferView" : 11,
            "componentType" : 5123,
            "count" : 96,
            "type" : "SCALAR"
        },
        {
            "bufferView" : 12,
            "componentType" : 5126,
            "count" : 25,
            "max" : [
                30,
                -30,
                0
            ],
            "min" : [
                -30,
                -30,
                -30
            ],
            "type" : "VEC3"
        },
        {
            "bufferView" : 13,
            "componentType" : 5126,
            "count" : 25,
            "type" : "VEC3"
        },
        {
            "bufferView" : 14,
            "componentType" : 5126,
            "count" : 25,
            "type" : "VEC2"
        },
        {
            "bufferView" : 15,
            "componentType" : 5126,
            "count" : 90,
            "max" : [
                13.771000862121582,
                13.489999771118164,
                0
            ],
            "min" : [
                10.790199279785156,
                10.551899909973145,
                -13.40310001373291
            ],
            "type" : "VEC3"
        },
        {
            "bufferView" : 16,
            "componentType" : 5126,
            "count" : 90,
            "type" : "VEC3"
        },
        {
            "bufferView" : 17,
            "componentType" : 5126,
            "count" : 90,
            "type" : "VEC2"
        },
        {
            "bufferView" : 18,
            "componentType" : 5123,
            "count" : 216,
            "type" : "SCALAR"
        },
        {
            "bufferView" : 19,
            "componentType" : 5126,
            "count" : 25,
            "max" : [
                30,
                30,
                0
            ],
            "min" : [
                -30,
                -30,
                0
            ],
            "type" : "VEC3"
        },
        {
            "bufferView" : 20,
            "componentType" : 5126,
            "count" : 25,
            "type" : "VEC3"
        },
        {
            "bufferView" : 21,
            "componentType" : 5126,
            "count" : 25,
            "type" : "VEC2"
        },
        {
            "bufferView" : 22,
            "componentType" : 5126,
            "count" : 323,
            "max" : [
                11.373000144958496,
                -4.43897008895874,
                -8.71835994720459
            ],
            "min" : [
                3.7674198150634766,
                -12.044499397277832,
                -16.32390022277832
            ],
            "type" : "VEC3"
        },
        {
            "bufferView" : 23,
            "componentType" : 5126,
            "count" : 323,
            "type" : "VEC3"
        },
        {
            "bufferView" : 24,
            "componentType" : 5126,
            "count" : 323,
            "type" : "VEC2"
        },
        {
            "bufferView" : 25,
            "componentType" : 5123,
            "count" : 1584,
            "type" : "SCALAR"
        },
        {
            "bufferView" : 26,
            "componentType" : 5126,
            "count" : 30,
            "max" : [
                16.083398818969727,
                4.0383100509643555,
                -2.962939977645874
            ],
            "min" : [
                9.19188117980957,
                -2.8532299995422363,
                -7.962939739227295
            ],
            "type" : "VEC3"
        },
        {
            "bufferView" : 27,
            "componentType" : 5126,
            "count" : 30,
            "type" : "VEC3"
        },
        {
            "bufferView" : 28,
            "componentType" : 5126,
            "count" : 30,
            "type" : "VEC2"
        },
        {
            "bufferView" : 29,
            "componentType" : 5123,
            "count" : 36,
            "type" : "SCALAR"
        },
        {
            "bufferView" : 30,
            "componentType" : 5126,
            "count" : 87,
            "max" : [
                1.4491099119186401,
                1.5356899499893188,
                0
            ],
            "min" : [
                -1.5317000150680542,
                -1.4024099111557007,
                -13.40310001373291
            ],
            "type" : "VEC3"
        },
        {
            "bufferView" : 31,
            "componentType" : 5126,
            "count" : 87,
            "type" : "VEC3"
        },
        {
            "bufferView" : 32,
            "componentType" : 5126,
            "count" : 87,
            "type" : "VEC2"
        },
        {
            "bufferView" : 33,
            "componentType" : 5123,
            "count" : 216,
            "type" : "SCALAR"
        },
        {
            "bufferView" : 34,
            "componentType" : 5126,
            "count" : 32,
            "max" : [
                3.45346999168396,
                -8.96920108795166,
                -2.962939977645874
            ],
            "min" : [
                -3.24931001663208,
                -15.672000885009766,
                -7.962939739227295
            ],
            "type" : "VEC3"
        },
        {
            "bufferView" : 35,
            "componentType" : 5126,
            "count" : 32,
            "type" : "VEC3"
        },
        {
            "bufferView" : 36,
            "componentType" : 5126,
            "count" : 32,
            "type" : "VEC2"
        },
        {
            "bufferView" : 37,
            "componentType" : 5123,
            "count" : 36,
            "type" : "SCALAR"
        }
    ],
    "bufferViews" : [
        {
            "buffer" : 0,
            "byteLength" : 7728,
            "byteOffset" : 0
        },
        {
            "buffer" : 0,
            "byteLength" : 7728,
            "byteOffset" : 7728
        },
        {
            "buffer" : 0,
            "byteLength" : 5152,
            "byteOffset" : 15456
        },
        {
            "buffer" : 0,
            "byteLength" : 5952,
            "byteOffset" : 20608
        },
        {
            "buffer" : 0,
            "byteLength" : 1140,
            "byteOffset" : 26560
        },
        {
            "buffer" : 0,
            "byteLength" : 1140,
            "byteOffset" : 27700
        },
        {
            "buffer" : 0,
            "byteLength" : 760,
            "byteOffset" : 28840
        },
        {
            "buffer" : 0,
            "byteLength" : 432,
            "byteOffset" : 29600
        },
        {
            "buffer" : 0,
            "byteLength" : 300,
            "byteOffset" : 30032
        },
        {
            "buffer" : 0,
            "byteLength" : 300,
            "byteOffset" : 30332
        },
        {
            "buffer" : 0,
            "byteLength" : 200,
            "byteOffset" : 30632
        },
        {
            "buffer" : 0,
            "byteLength" : 192,
            "byteOffset" : 30832
        },
        {
            "buffer" : 0,
            "byteLength" : 300,
            "byteOffset" : 31024
        },
        {
            "buffer" : 0,
            "byteLength" : 300,
            "byteOffset" : 31324
        },
        {
            "buffer" : 0,
            "byteLength" : 200,
            "byteOffset" : 31624
        },
        {
            "buffer" : 0,
            "byteLength" : 1080,
            "byteOffset" : 31824
        },
        {
            "buffer" : 0,
            "byteLength" : 1080,
            "byteOffset" : 32904
        },
        {
            "buffer" : 0,
            "byteLength" : 720,
            "byteOffset" : 33984
        },
        {
            "buffer" : 0,
            "byteLength" : 432,
            "byteOffset" : 34704
        },
        {
            "buffer" : 0,
            "byteLength" : 300,
            "byteOffset" : 35136
        },
        {
            "buffer" : 0,
            "byteLength" : 300,
            "byteOffset" : 35436
        },
        {
            "buffer" : 0,
            "byteLength" : 200,
            "byteOffset" : 35736
        },
        {
            "buffer" : 0,
            "byteLength" : 3876,
            "byteOffset" : 35936
        },
        {
            "buffer" : 0,
            "byteLength" : 3876,
            "byteOffset" : 39812
        },
        {
            "buffer" : 0,
            "byteLength" : 2584,
            "byteOffset" : 43688
        },
        {
            "buffer" : 0,
            "byteLength" : 3168,
            "byteOffset" : 46272
        },
        {
            "buffer" : 0,
            "byteLength" : 360,
            "byteOffset" : 49440
        },
        {
            "buffer" : 0,
            "byteLength" : 360,
            "byteOffset" : 49800
        },
        {
            "buffer" : 0,
            "byteLength" : 240,
            "byteOffset" : 50160
        },
        {
            "buffer" : 0,
            "byteLength" : 72,
            "byteOffset" : 50400
        },
        {
            "buffer" : 0,
            "byteLength" : 1044,
            "byteOffset" : 50472
        },
        {
            "buffer" : 0,
            "byteLength" : 1044,
            "byteOffset" : 51516
        },
        {
            "buffer" : 0,
            "byteLength" : 696,
            "byteOffset" : 52560
        },
        {
            "buffer" : 0,
            "byteLength" : 432,
            "byteOffset" : 53256
        },
        {
            "buffer" : 0,
            "byteLength" : 384,
            "byteOffset" : 53688
        },
        {
            "buffer" : 0,
            "byteLength" : 384,
            "byteOffset" : 54072
        },
        {
            "buffer" : 0,
            "byteLength" : 256,
            "byteOffset" : 54456
        },
        {
            "buffer" : 0,
            "byteLength" : 72,
            "byteOffset" : 54712
        }
    ],
    "buffers" : [
        {
            "byteLength" : 54784,
            "uri" : "data:application/octet-stream;base64,"
        }
    ]
}
