{
    "asset" : {
        "generator" : "Khronos glTF Blender I/O v1.2.75",
        "version" : "2.0"
    },
    "scene" : 0,
    "scenes" : [
        {
            "name" : "Scene",
            "nodes" : [
                0,
                1,
                2,
                3,
                4,
                5
            ]
        }
    ],
    "nodes" : [
        {
            "mesh" : 0,
            "name" : "lod0",
            "scale" : [
                0.10000002384185791,
                0.10000002384185791,
                0.10000002384185791
            ]
        },
        {
            "mesh" : 1,
            "name" : "lod1",
            "scale" : [
                0.10000002384185791,
                0.10000002384185791,
                0.10000002384185791
            ]
        },
        {
            "mesh" : 2,
            "name" : "lod2",
            "scale" : [
                0.10000002384185791,
                0.10000002384185791,
                0.10000002384185791
            ]
        },
        {
            "mesh" : 3,
            "name" : "lod3",
            "scale" : [
                0.10000002384185791,
                0.10000002384185791,
                0.10000002384185791
            ]
        },
        {
            "mesh" : 4,
            "name" : "lod4",
            "scale" : [
                0.10000002384185791,
                0.10000002384185791,
                0.10000002384185791
            ]
        },
        {
            "mesh" : 5,
            "name" : "lod5",
            "scale" : [
                0.10000002384185791,
                0.10000002384185791,
                0.10000002384185791
            ]
        }
    ],
    "materials" : [
        {
            "doubleSided" : true,
            "emissiveFactor" : [
                0,
                0,
                0
            ],
            "name" : "Material_001",
            "pbrMetallicRoughness" : {
                "baseColorFactor" : [
                    0,
                    0.6399999856948853,
                    0.005634968634694815,
                    1
                ],
                "metallicFactor" : 0,
                "roughnessFactor" : 0.5
            }
        },
        {
            "doubleSided" : true,
            "emissiveFactor" : [
                0,
                0,
                0
            ],
            "name" : "Material_002",
            "pbrMetallicRoughness" : {
                "baseColorFactor" : [
                    0.5065259337425232,
                    0.6399999856948853,
                    0.017379630357027054,
                    1
                ],
                "metallicFactor" : 0,
                "roughnessFactor" : 0.5
            }
        },
        {
            "doubleSided" : true,
            "emissiveFactor" : [
                0,
                0,
                0
            ],
            "name" : "Material_003",
            "pbrMetallicRoughness" : {
                "baseColorFactor" : [
                    0.6262683272361755,
                    0.6399999856948853,
                    0,
                    1
                ],
                "metallicFactor" : 0,
                "roughnessFactor" : 0.5
            }
        },
        {
            "doubleSided" : true,
            "emissiveFactor" : [
                0,
                0,
                0
            ],
            "name" : "Material_004",
            "pbrMetallicRoughness" : {
                "baseColorFactor" : [
                    0.6399999856948853,
                    0.3208619952201843,
                    0.0026622710283845663,
                    1
                ],
                "metallicFactor" : 0,
                "roughnessFactor" : 0.5
            }
        },
        {
            "doubleSided" : true,
            "emissiveFactor" : [
                0,
                0,
                0
            ],
            "name" : "Material_005",
            "pbrMetallicRoughness" : {
                "baseColorFactor" : [
                    0.6399999856948853,
                    0.10701320320367813,
                    0,
                    1
                ],
                "metallicFactor" : 0,
                "roughnessFactor" : 0.5
            }
        },
        {
            "doubleSided" : true,
            "emissiveFactor" : [
                0,
                0,
                0
            ],
            "name" : "Material_006",
            "pbrMetallicRoughness" : {
                "baseColorFactor" : [
                    0.6399999856948853,
                    0.0003747589944396168,
                    0,
                    1
                ],
                "metallicFactor" : 0,
                "roughnessFactor" : 0.5
            }
        }
    ],
    "meshes" : [
        {
            "name" : "Suzanne",
            "primitives" : [
                {
                    "attributes" : {
                        "POSITION" : 0,
                        "NORMAL" : 1
                    },
                    "indices" : 2,
                    "material" : 0
                }
            ]
        },
        {
            "name" : "Suzanne.001",
            "primitives" : [
                {
                    "attributes" : {
                        "POSITION" : 3,
                        "NORMAL" : 4
                    },
                    "indices" : 5,
                    "material" : 1
                }
            ]
        },
        {
            "name" : "Suzanne.002",
            "primitives" : [
                {
                    "attributes" : {
                        "POSITION" : 6,
                        "NORMAL" : 7
                    },
                    "indices" : 8,
                    "material" : 2
                }
            ]
        },
        {
            "name" : "Suzanne.004",
            "primitives" : [
                {
                    "attributes" : {
                        "POSITION" : 9,
                        "NORMAL" : 10
                    },
                    "indices" : 11,
                    "material" : 3
                }
            ]
        },
        {
            "name" : "Suzanne.005",
            "primitives" : [
                {
                    "attributes" : {
                        "POSITION" : 12,
                        "NORMAL" : 13
                    },
                    "indices" : 14,
                    "material" : 4
                }
            ]
        },
        {
            "name" : "Suzanne.007",
            "primitives" : [
                {
                    "attributes" : {
                        "POSITION" : 15,
                        "NORMAL" : 16
                    },
                    "indices" : 17,
                    "material" : 5
                }
            ]
        }
    ],
    "accessors" : [
        {
            "bufferView" : 0,
            "componentType" : 5126,
            "count" : 7961,
            "max" : [
                1.330683946609497,
                0.9419556260108948,
                0.822896420955658
            ],
            "min" : [
                -1.330683946609497,
                -0.97308349609375,
                -0.7838898301124573
            ],
            "type" : "VEC3"
        },
        {
            "bufferView" : 1,
            "componentType" : 5126,
            "count" : 7961,
            "type" : "VEC3"
        },
        {
            "bufferView" : 2,
            "componentType" : 5123,
            "count" : 47232,
            "type" : "SCALAR"
        },
        {
            "bufferView" : 3,
            "componentType" : 5126,
            "count" : 2012,
            "max" : [
                1.3369139432907104,
                0.9501953125,
                0.82568359375
            ],
            "min" : [
                -1.3369139432907104,
                -0.9746094346046448,
                -0.8007813096046448
            ],
            "type" : "VEC3"
        },
        {
            "bufferView" : 4,
            "componentType" : 5126,
            "count" : 2012,
            "type" : "VEC3"
        },
        {
            "bufferView" : 5,
            "componentType" : 5123,
            "count" : 11808,
            "type" : "SCALAR"
        },
        {
            "bufferView" : 6,
            "componentType" : 5126,
            "count" : 507,
            "max" : [
                1.3671870231628418,
                0.984375,
                0.8515625
            ],
            "min" : [
                -1.3671870231628418,
                -0.984375,
                -0.8515625
            ],
            "type" : "VEC3"
        },
        {
            "bufferView" : 7,
            "componentType" : 5126,
            "count" : 507,
            "type" : "VEC3"
        },
        {
            "bufferView" : 8,
            "componentType" : 5123,
            "count" : 2901,
            "type" : "SCALAR"
        },
        {
            "bufferView" : 9,
            "componentType" : 5126,
            "count" : 263,
            "max" : [
                1.3629909753799438,
                0.984375,
                0.8517768383026123
            ],
            "min" : [
                -1.3629909753799438,
                -0.9788272380828857,
                -0.8515625
            ],
            "type" : "VEC3"
        },
        {
            "bufferView" : 10,
            "componentType" : 5126,
            "count" : 263,
            "type" : "VEC3"
        },
        {
            "bufferView" : 11,
            "componentType" : 5123,
            "count" : 1452,
            "type" : "SCALAR"
        },
        {
            "bufferView" : 12,
            "componentType" : 5126,
            "count" : 138,
            "max" : [
                1.3629909753799438,
                0.984375,
                0.8517768383026123
            ],
            "min" : [
                -1.3629909753799438,
                -0.9788272380828857,
                -0.8515625
            ],
            "type" : "VEC3"
        },
        {
            "bufferView" : 13,
            "componentType" : 5126,
            "count" : 138,
            "type" : "VEC3"
        },
        {
            "bufferView" : 14,
            "componentType" : 5123,
            "count" : 726,
            "type" : "SCALAR"
        },
        {
            "bufferView" : 15,
            "componentType" : 5126,
            "count" : 74,
            "max" : [
                1.287079930305481,
                0.9650669693946838,
                0.8633329272270203
            ],
            "min" : [
                -1.287079930305481,
                -0.9570326209068298,
                -0.8731324076652527
            ],
            "type" : "VEC3"
        },
        {
            "bufferView" : 16,
            "componentType" : 5126,
            "count" : 74,
            "type" : "VEC3"
        },
        {
            "bufferView" : 17,
            "componentType" : 5123,
            "count" : 360,
            "type" : "SCALAR"
        }
    ],
    "bufferViews" : [
        {
            "buffer" : 0,
            "byteLength" : 95532,
            "byteOffset" : 0
        },
        {
            "buffer" : 0,
            "byteLength" : 95532,
            "byteOffset" : 95532
        },
        {
            "buffer" : 0,
            "byteLength" : 94464,
            "byteOffset" : 191064
        },
        {
            "buffer" : 0,
            "byteLength" : 24144,
            "byteOffset" : 285528
        },
        {
            "buffer" : 0,
            "byteLength" : 24144,
            "byteOffset" : 309672
        },
        {
            "buffer" : 0,
            "byteLength" : 23616,
            "byteOffset" : 333816
        },
        {
            "buffer" : 0,
            "byteLength" : 6084,
            "byteOffset" : 357432
        },
        {
            "buffer" : 0,
            "byteLength" : 6084,
            "byteOffset" : 363516
        },
        {
            "buffer" : 0,
            "byteLength" : 5802,
            "byteOffset" : 369600
        },
        {
            "buffer" : 0,
            "byteLength" : 3156,
            "byteOffset" : 375404
        },
        {
            "buffer" : 0,
            "byteLength" : 3156,
            "byteOffset" : 378560
        },
        {
            "buffer" : 0,
            "byteLength" : 2904,
            "byteOffset" : 381716
        },
        {
            "buffer" : 0,
            "byteLength" : 1656,
            "byteOffset" : 384620
        },
        {
            "buffer" : 0,
            "byteLength" : 1656,
            "byteOffset" : 386276
        },
        {
            "buffer" : 0,
            "byteLength" : 1452,
            "byteOffset" : 387932
        },
        {
            "buffer" : 0,
            "byteLength" : 888,
            "byteOffset" : 389384
        },
        {
            "buffer" : 0,
            "byteLength" : 888,
            "byteOffset" : 390272
        },
        {
            "buffer" : 0,
            "byteLength" : 720,
            "byteOffset" : 391160
        }
    ],
    "buffers" : [
        {
            "byteLength" : 391880,
            "uri" : "data:application/octet-stream;base64,"
        }
    ]
}
