{
    "asset" : {
        "generator" : "Khronos glTF Blender I/O v1.0.5",
        "version" : "2.0"
    },
    "scene" : 0,
    "scenes" : [
        {
            "name" : "Scene",
            "nodes" : [
                0
            ]
        }
    ],
    "nodes" : [
        {
            "mesh" : 0,
            "name" : "terrain01",
            "rotation" : [
                0,
                -1,
                0,
                7.549790126404332e-08
            ],
            "scale" : [
                20,
                35,
                20
            ],
            "translation" : [
                0,
                0.38194891810417175,
                0
            ]
        }
    ],
    "materials" : [
        {
            "doubleSided" : true,
            "name" : "Material",
            "pbrMetallicRoughness" : {
                "baseColorTexture" : {
                    "index" : 0,
                    "texCoord" : 0
                },
                "metallicFactor" : 0,
                "roughnessFactor" : 0.5
            }
        }
    ],
    "meshes" : [
        {
            "name" : "terrain01",
            "primitives" : [
                {
                    "attributes" : {
                        "POSITION" : 0,
                        "NORMAL" : 1,
                        "TEXCOORD_0" : 2
                    },
                    "indices" : 3,
                    "material" : 0
                }
            ]
        }
    ],
    "textures" : [
        {
            "source" : 0
        }
    ],
    "images" : [
        {
            "bufferView" : 4,
            "mimeType" : "image/png",
            "name" : "gridlines"
        }
    ],
    "accessors" : [
        {
            "bufferView" : 0,
            "componentType" : 5126,
            "count" : 3123,
            "max" : [
                0.5,
                0.024999970570206642,
                0.5
            ],
            "min" : [
                -0.5,
                -0.024999970570206642,
                -0.5
            ],
            "type" : "VEC3"
        },
        {
            "bufferView" : 1,
            "componentType" : 5126,
            "count" : 3123,
            "type" : "VEC3"
        },
        {
            "bufferView" : 2,
            "componentType" : 5126,
            "count" : 3123,
            "type" : "VEC2"
        },
        {
            "bufferView" : 3,
            "componentType" : 5123,
            "count" : 4797,
            "type" : "SCALAR"
        }
    ],
    "bufferViews" : [
        {
            "buffer" : 0,
            "byteLength" : 37476,
            "byteOffset" : 0
        },
        {
            "buffer" : 0,
            "byteLength" : 37476,
            "byteOffset" : 37476
        },
        {
            "buffer" : 0,
            "byteLength" : 24984,
            "byteOffset" : 74952
        },
        {
            "buffer" : 0,
            "byteLength" : 9594,
            "byteOffset" : 99936
        },
        {
            "buffer" : 0,
            "byteLength" : 2252,
            "byteOffset" : 109532
        }
    ],
    "buffers" : [
        {
            "byteLength" : 111784,
            "uri" : "data:application/octet-stream;base64,"
        }
    ]
}
