{
    "asset" : {
        "generator" : "Khronos glTF Blender I/O v1.0.5",
        "version" : "2.0"
    },
    "scene" : 0,
    "scenes" : [
        {
            "name" : "Scene",
            "nodes" : [
                0
            ]
        }
    ],
    "nodes" : [
        {
            "mesh" : 0,
            "name" : "background",
            "translation" : [
                0.013558566570281982,
                -0.5636363625526428,
                -0.13287201523780823
            ]
        }
    ],
    "materials" : [
        {
            "doubleSided" : true,
            "name" : "Black",
            "pbrMetallicRoughness" : {
                "baseColorFactor" : [
                    0.02365071512758732,
                    0.02365071512758732,
                    0.02365071512758732,
                    1
                ],
                "metallicFactor" : 0,
                "roughnessFactor" : 0.5
            }
        }
    ],
    "meshes" : [
        {
            "name" : "Plane.000",
            "primitives" : [
                {
                    "attributes" : {
                        "POSITION" : 0,
                        "NORMAL" : 1
                    },
                    "indices" : 2,
                    "material" : 0
                }
            ]
        }
    ],
    "accessors" : [
        {
            "bufferView" : 0,
            "componentType" : 5126,
            "count" : 1417,
            "max" : [
                1.4062936305999756,
                1.8471609354019165,
                1.3285495042800903
            ],
            "min" : [
                -1.3843111991882324,
                -0.6345086097717285,
                -0.914364218711853
            ],
            "type" : "VEC3"
        },
        {
            "bufferView" : 1,
            "componentType" : 5126,
            "count" : 1417,
            "type" : "VEC3"
        },
        {
            "bufferView" : 2,
            "componentType" : 5123,
            "count" : 6390,
            "type" : "SCALAR"
        }
    ],
    "bufferViews" : [
        {
            "buffer" : 0,
            "byteLength" : 17004,
            "byteOffset" : 0
        },
        {
            "buffer" : 0,
            "byteLength" : 17004,
            "byteOffset" : 17004
        },
        {
            "buffer" : 0,
            "byteLength" : 12780,
            "byteOffset" : 34008
        }
    ],
    "buffers" : [
        {
            "byteLength" : 46788,
            "uri" : "data:application/octet-stream;base64,"
        }
    ]
}
