{
    "asset" : {
        "generator" : "Khronos glTF Blender I/O v1.0.5",
        "version" : "2.0"
    },
    "scene" : 0,
    "scenes" : [
        {
            "name" : "Scene",
            "nodes" : [
                0,
                1,
                2
            ]
        }
    ],
    "nodes" : [
        {
            "mesh" : 0,
            "name" : "logo",
            "rotation" : [
                0.7071067690849304,
                0,
                0,
                0.7071067690849304
            ],
            "translation" : [
                0.44655364751815796,
                1.0781179666519165,
                0.0011239885352551937
            ]
        },
        {
            "mesh" : 1,
            "name" : "logo_back",
            "rotation" : [
                0.7071067690849304,
                0,
                0,
                0.7071067690849304
            ],
            "translation" : [
                0.28414225578308105,
                0.9980977177619934,
                -0.04326024651527405
            ]
        },
        {
            "mesh" : 2,
            "name" : "subtitle",
            "scale" : [
                1.1054153442382812,
                0.9545460939407349,
                1.1054153442382812
            ],
            "translation" : [
                0.08979278802871704,
                -1.0874261856079102,
                1.1251035928726196
            ]
        }
    ],
    "materials" : [
        {
            "doubleSided" : true,
            "name" : "White Emissive",
            "pbrMetallicRoughness" : {
                "baseColorFactor" : [
                    0.800000011920929,
                    0.800000011920929,
                    0.800000011920929,
                    1
                ],
                "metallicFactor" : 0,
                "roughnessFactor" : 0.5
            }
        },
        {
            "doubleSided" : true,
            "name" : "Logo.004",
            "pbrMetallicRoughness" : {
                "baseColorFactor" : [
                    0.8000000715255737,
                    0.0037581780925393105,
                    0.006105868611484766,
                    1
                ],
                "metallicFactor" : 0,
                "roughnessFactor" : 0.5
            }
        },
        {
            "doubleSided" : true,
            "name" : "Logo.003",
            "pbrMetallicRoughness" : {
                "baseColorFactor" : [
                    0.8000000715255737,
                    0.0037581780925393105,
                    0.006105868611484766,
                    1
                ],
                "metallicFactor" : 0,
                "roughnessFactor" : 0.5
            }
        },
        {
            "doubleSided" : true,
            "name" : "White Emissive.001",
            "pbrMetallicRoughness" : {}
        }
    ],
    "meshes" : [
        {
            "name" : "Mesh",
            "primitives" : [
                {
                    "attributes" : {
                        "POSITION" : 0,
                        "NORMAL" : 1
                    },
                    "indices" : 2,
                    "material" : 0
                }
            ]
        },
        {
            "name" : "Mesh.001",
            "primitives" : [
                {
                    "attributes" : {
                        "POSITION" : 3,
                        "NORMAL" : 4
                    },
                    "indices" : 5,
                    "material" : 1
                }
            ]
        },
        {
            "name" : "msh.002",
            "primitives" : [
                {
                    "attributes" : {
                        "POSITION" : 6,
                        "NORMAL" : 7
                    },
                    "indices" : 8,
                    "material" : 2
                },
                {
                    "attributes" : {
                        "POSITION" : 9,
                        "NORMAL" : 10
                    },
                    "indices" : 11,
                    "material" : 3
                }
            ]
        }
    ],
    "accessors" : [
        {
            "bufferView" : 0,
            "componentType" : 5126,
            "count" : 4713,
            "max" : [
                0.9229627847671509,
                0.00426950678229332,
                0.19486841559410095
            ],
            "min" : [
                -1.7345805168151855,
                -0.004269260913133621,
                -0.5095716714859009
            ],
            "type" : "VEC3"
        },
        {
            "bufferView" : 1,
            "componentType" : 5126,
            "count" : 4713,
            "type" : "VEC3"
        },
        {
            "bufferView" : 2,
            "componentType" : 5123,
            "count" : 13266,
            "type" : "SCALAR"
        },
        {
            "bufferView" : 3,
            "componentType" : 5126,
            "count" : 5545,
            "max" : [
                1.1538864374160767,
                0.04112068563699722,
                0.9808897972106934
            ],
            "min" : [
                -1.6388107538223267,
                -0.0434868261218071,
                -0.6580302715301514
            ],
            "type" : "VEC3"
        },
        {
            "bufferView" : 4,
            "componentType" : 5126,
            "count" : 5545,
            "type" : "VEC3"
        },
        {
            "bufferView" : 5,
            "componentType" : 5123,
            "count" : 8712,
            "type" : "SCALAR"
        },
        {
            "bufferView" : 6,
            "componentType" : 5126,
            "count" : 2411,
            "max" : [
                0.9440426230430603,
                0.12533968687057495,
                0.11167388409376144
            ],
            "min" : [
                -1.0200703144073486,
                -0.12444891035556793,
                -0.2606598734855652
            ],
            "type" : "VEC3"
        },
        {
            "bufferView" : 7,
            "componentType" : 5126,
            "count" : 2411,
            "type" : "VEC3"
        },
        {
            "bufferView" : 8,
            "componentType" : 5123,
            "count" : 6945,
            "type" : "SCALAR"
        },
        {
            "bufferView" : 9,
            "componentType" : 5126,
            "count" : 3651,
            "max" : [
                0.9203041195869446,
                0.08598268777132034,
                0.12398003041744232
            ],
            "min" : [
                -0.9979848861694336,
                -0.08428163826465607,
                -0.18391627073287964
            ],
            "type" : "VEC3"
        },
        {
            "bufferView" : 10,
            "componentType" : 5126,
            "count" : 3651,
            "type" : "VEC3"
        },
        {
            "bufferView" : 11,
            "componentType" : 5123,
            "count" : 9795,
            "type" : "SCALAR"
        }
    ],
    "bufferViews" : [
        {
            "buffer" : 0,
            "byteLength" : 56556,
            "byteOffset" : 0
        },
        {
            "buffer" : 0,
            "byteLength" : 56556,
            "byteOffset" : 56556
        },
        {
            "buffer" : 0,
            "byteLength" : 26532,
            "byteOffset" : 113112
        },
        {
            "buffer" : 0,
            "byteLength" : 66540,
            "byteOffset" : 139644
        },
        {
            "buffer" : 0,
            "byteLength" : 66540,
            "byteOffset" : 206184
        },
        {
            "buffer" : 0,
            "byteLength" : 17424,
            "byteOffset" : 272724
        },
        {
            "buffer" : 0,
            "byteLength" : 28932,
            "byteOffset" : 290148
        },
        {
            "buffer" : 0,
            "byteLength" : 28932,
            "byteOffset" : 319080
        },
        {
            "buffer" : 0,
            "byteLength" : 13890,
            "byteOffset" : 348012
        },
        {
            "buffer" : 0,
            "byteLength" : 43812,
            "byteOffset" : 361904
        },
        {
            "buffer" : 0,
            "byteLength" : 43812,
            "byteOffset" : 405716
        },
        {
            "buffer" : 0,
            "byteLength" : 19590,
            "byteOffset" : 449528
        }
    ],
    "buffers" : [
        {
            "byteLength" : 469120,
            "uri" : "data:application/octet-stream;base64,"
        }
    ]
}
