{
    "asset" : {
        "generator" : "Khronos glTF Blender I/O v1.2.75",
        "version" : "2.0"
    },
    "scene" : 0,
    "scenes" : [
        {
            "name" : "Scene",
            "nodes" : [
                2
            ]
        }
    ],
    "nodes" : [
        {
            "mesh" : 0,
            "name" : "Cerberus00_Fixed.001"
        },
        {
            "children" : [
                0
            ],
            "name" : "Node_1",
            "rotation" : [
                -0.7071067690849304,
                0,
                0,
                0.7071067690849304
            ],
            "translation" : [
                0,
                0,
                -0.9372016191482544
            ]
        },
        {
            "children" : [
                1
            ],
            "name" : "Cerberus00_Fixed",
            "scale" : [
                2,
                2,
                2
            ]
        }
    ],
    "materials" : [
        {
            "doubleSided" : true,
            "emissiveFactor" : [
                0,
                0,
                0
            ],
            "name" : "Material_0",
            "pbrMetallicRoughness" : {
                "baseColorFactor" : [
                    0.5882353186607361,
                    0.5882353186607361,
                    0.5882353186607361,
                    1
                ],
                "metallicFactor" : 0,
                "roughnessFactor" : 1
            }
        }
    ],
    "meshes" : [
        {
            "name" : "Mesh_0",
            "primitives" : [
                {
                    "attributes" : {
                        "POSITION" : 0,
                        "NORMAL" : 1,
                        "TANGENT" : 2,
                        "TEXCOORD_0" : 3
                    },
                    "indices" : 4,
                    "material" : 0
                }
            ]
        }
    ],
    "accessors" : [
        {
            "bufferView" : 0,
            "componentType" : 5126,
            "count" : 32814,
            "max" : [
                0.12520314753055573,
                0.2583712041378021,
                0.1877880096435547
            ],
            "min" : [
                -0.19993123412132263,
                -1.3026896715164185,
                -0.47208714485168457
            ],
            "type" : "VEC3"
        },
        {
            "bufferView" : 1,
            "componentType" : 5126,
            "count" : 32814,
            "type" : "VEC3"
        },
        {
            "bufferView" : 2,
            "componentType" : 5126,
            "count" : 32814,
            "type" : "VEC4"
        },
        {
            "bufferView" : 3,
            "componentType" : 5126,
            "count" : 32814,
            "type" : "VEC2"
        },
        {
            "bufferView" : 4,
            "componentType" : 5123,
            "count" : 100623,
            "type" : "SCALAR"
        }
    ],
    "bufferViews" : [
        {
            "buffer" : 0,
            "byteLength" : 393768,
            "byteOffset" : 0
        },
        {
            "buffer" : 0,
            "byteLength" : 393768,
            "byteOffset" : 393768
        },
        {
            "buffer" : 0,
            "byteLength" : 525024,
            "byteOffset" : 787536
        },
        {
            "buffer" : 0,
            "byteLength" : 262512,
            "byteOffset" : 1312560
        },
        {
            "buffer" : 0,
            "byteLength" : 201246,
            "byteOffset" : 1575072
        }
    ],
    "buffers" : [
        {
            "byteLength" : 1776320,
            "uri" : "data:application/octet-stream;base64,"
        }
    ]
}
